<?xml version="1.0" encoding="UTF-8"?>
<svg width="60px" height="42px" viewBox="0 0 60 42" version="1.1" xmlns="http://www.w3.org/2000/svg" xmlns:xlink="http://www.w3.org/1999/xlink">
    <title>layout-button</title>
    <defs>
        <linearGradient x1="50%" y1="0%" x2="50%" y2="100%" id="linearGradient-1">
            <stop stop-color="#00B2FF" offset="0%"></stop>
            <stop stop-color="#007AFF" offset="100%"></stop>
        </linearGradient>
    </defs>
    <g id="layout-button" stroke="none" stroke-width="1" fill="none" fill-rule="evenodd">
        <path d="M54,13 C56.209139,13 58,14.790861 58,17 L58,27 C58,29.209139 56.209139,31 54,31 L6,31 C3.790861,31 2,29.209139 2,27 L2,17 C2,14.790861 3.790861,13 6,13 L54,13 Z M22.5240816,19.77 L20.7340816,19.77 L20.7340816,23.18 C20.7340816,23.5133333 20.7790816,23.8016667 20.8690816,24.045 C20.9590816,24.2883333 21.0840816,24.49 21.2440816,24.65 C21.3974149,24.81 21.5807483,24.9283333 21.7940816,25.005 C22.0074149,25.0816667 22.2407483,25.12 22.4940816,25.12 C22.9340816,25.12 23.2857483,25.0333333 23.5490816,24.86 C23.7597483,24.7213333 23.9309483,24.5506667 24.0626816,24.348 L24.1540816,24.19 L24.1540816,25 L25.9440816,25 L25.9440816,19.77 L24.1540816,19.77 L24.1540816,22.78 C24.1540816,23.12 24.0740816,23.37 23.9140816,23.53 C23.7540816,23.69 23.5374149,23.77 23.2640816,23.77 C23.0174149,23.77 22.8324149,23.6966667 22.7090816,23.55 C22.6063038,23.4277778 22.5463501,23.2546296 22.5292205,23.0305556 L22.5240816,22.89 L22.5240816,19.77 Z M29.0120408,18.68 L27.2220408,18.68 L27.2220408,19.77 L26.5920408,19.77 L26.5920408,20.99 L27.2220408,20.99 L27.2220408,23.32 C27.2220408,23.94 27.3803741,24.395 27.6970408,24.685 C28.0137075,24.975 28.4687075,25.12 29.0620408,25.12 C29.2753741,25.12 29.4653741,25.1033333 29.6320408,25.07 C29.7431519,25.0477778 29.8424112,25.0255556 29.9298186,25.0033333 L30.0520408,24.97 L30.0520408,23.61 C29.9720408,23.6433333 29.8920408,23.6666667 29.8120408,23.68 C29.7320408,23.6933333 29.6420408,23.7 29.5420408,23.7 C29.3687075,23.7 29.2370408,23.6533333 29.1470408,23.56 C29.0750408,23.4853333 29.0318408,23.3829333 29.0174408,23.2528 L29.0120408,23.15 L29.0120408,20.99 L30.0420408,20.99 L30.0420408,19.77 L29.0120408,19.77 L29.0120408,18.68 Z M32.88,18.68 L31.09,18.68 L31.09,19.77 L30.46,19.77 L30.46,20.99 L31.09,20.99 L31.09,23.32 C31.09,23.94 31.2483333,24.395 31.565,24.685 C31.8816667,24.975 32.3366667,25.12 32.93,25.12 C33.1433333,25.12 33.3333333,25.1033333 33.5,25.07 C33.6111111,25.0477778 33.7103704,25.0255556 33.7977778,25.0033333 L33.92,24.97 L33.92,23.61 C33.84,23.6433333 33.76,23.6666667 33.68,23.68 C33.6,23.6933333 33.51,23.7 33.41,23.7 C33.2366667,23.7 33.105,23.6533333 33.015,23.56 C32.943,23.4853333 32.8998,23.3829333 32.8854,23.2528 L32.88,23.15 L32.88,20.99 L33.91,20.99 L33.91,19.77 L32.88,19.77 L32.88,18.68 Z M37.3079592,19.63 C36.9012925,19.63 36.5229592,19.6933333 36.1729592,19.82 C35.8229592,19.9466667 35.5212925,20.13 35.2679592,20.37 C35.0079592,20.61 34.8046259,20.8983333 34.6579592,21.235 C34.5406259,21.5043333 34.4702259,21.8003333 34.4467592,22.123 L34.4379592,22.37 L34.4379592,22.45 C34.4379592,22.87 34.5112925,23.2466667 34.6579592,23.58 C34.8046259,23.9133333 35.0079592,24.1933333 35.2679592,24.42 C35.5212925,24.6466667 35.8229592,24.82 36.1729592,24.94 C36.5229592,25.06 36.8979592,25.12 37.2979592,25.12 C37.6979592,25.12 38.0729592,25.0583333 38.4229592,24.935 C38.7729592,24.8116667 39.0779592,24.6333333 39.3379592,24.4 C39.5912925,24.1666667 39.7912925,23.8816667 39.9379592,23.545 C40.0552925,23.2756667 40.1256925,22.9775333 40.1491592,22.6506 L40.1579592,22.4 L40.1579592,22.32 C40.1579592,21.9066667 40.0846259,21.5333333 39.9379592,21.2 C39.7912925,20.8666667 39.5912925,20.5833333 39.3379592,20.35 C39.0846259,20.1166667 38.7829592,19.9383333 38.4329592,19.815 C38.0829592,19.6916667 37.7079592,19.63 37.3079592,19.63 Z M17.3561224,17.85 L14.1661224,17.85 L14.1661224,25 L17.3861224,25 C18.2727891,25 18.9277891,24.8283333 19.3511224,24.485 C19.7321224,24.176 19.9416724,23.74685 19.9797724,23.19755 L19.9861224,23.01 L19.9861224,22.97 C19.9861224,22.47 19.8577891,22.085 19.6011224,21.815 C19.3444557,21.545 18.9961224,21.3733333 18.5561224,21.3 C18.9627891,21.1933333 19.2661224,21.0116667 19.4661224,20.755 C19.637551,20.535 19.7355102,20.259898 19.76,19.9296939 L19.7661224,19.76 L19.7661224,19.72 C19.7661224,19.44 19.7194557,19.1866667 19.6261224,18.96 C19.5327891,18.7333333 19.3894557,18.5366667 19.1961224,18.37 C19.0027891,18.2033333 18.7527891,18.075 18.4461224,17.985 C18.2007891,17.913 17.9191891,17.8698 17.6013224,17.8554 L17.3561224,17.85 Z M44.4259184,19.63 C43.9859184,19.63 43.6242517,19.725 43.3409184,19.915 C43.1142517,20.067 42.9334517,20.2456667 42.7985184,20.451 L42.7059184,20.61 L42.7059184,19.77 L40.9159184,19.77 L40.9159184,25 L42.7059184,25 L42.7059184,22.07 C42.7059184,21.73 42.7875851,21.48 42.9509184,21.32 C43.1142517,21.16 43.3292517,21.08 43.5959184,21.08 C43.8559184,21.08 44.0459184,21.1516667 44.1659184,21.295 C44.2659184,21.4144444 44.3242517,21.588287 44.3409184,21.8165278 L44.3459184,21.96 L44.3459184,25 L46.1359184,25 L46.1359184,21.6 C46.1359184,20.9333333 45.9775851,20.4383333 45.6609184,20.115 C45.3442517,19.7916667 44.9325851,19.63 44.4259184,19.63 Z M37.3079592,20.97 C37.6479592,20.97 37.9046259,21.0883333 38.0779592,21.325 C38.2265306,21.5278571 38.3114286,21.8054082 38.3326531,22.1576531 L38.3379592,22.34 L38.3379592,22.42 C38.3379592,22.86 38.2512925,23.1983333 38.0779592,23.435 C37.9046259,23.6716667 37.6479592,23.79 37.3079592,23.79 C36.9612925,23.79 36.7012925,23.6716667 36.5279592,23.435 C36.3793878,23.2321429 36.2944898,22.9496939 36.2732653,22.5876531 L36.2679592,22.4 L36.2679592,22.32 C36.2679592,21.88 36.3562925,21.545 36.5329592,21.315 C36.7096259,21.085 36.9679592,20.97 37.3079592,20.97 Z M16.9561224,21.94 C17.3161224,21.94 17.5744557,22.0083333 17.7311224,22.145 C17.861678,22.2588889 17.9378354,22.4202315 17.9595946,22.6290278 L17.9661224,22.76 L17.9661224,22.8 C17.9661224,23.0666667 17.8894557,23.2716667 17.7361224,23.415 C17.5827891,23.5583333 17.3427891,23.63 17.0161224,23.63 L16.1661224,23.63 L16.1661224,21.94 L16.9561224,21.94 Z M16.9461224,19.21 C17.2594557,19.21 17.4844557,19.2666667 17.6211224,19.38 C17.7350113,19.4744444 17.8014465,19.6151852 17.820428,19.8022222 L17.8261224,19.92 L17.8261224,19.96 C17.8261224,20.2133333 17.7594557,20.3983333 17.6261224,20.515 C17.4927891,20.6316667 17.2661224,20.69 16.9461224,20.69 L16.1661224,20.69 L16.1661224,19.21 L16.9461224,19.21 Z" id="Combined-Shape" fill="url(#linearGradient-1)"></path>
    </g>
</svg>