<?xml version="1.0" encoding="UTF-8"?>
<svg width="60px" height="42px" viewBox="0 0 60 42" version="1.1" xmlns="http://www.w3.org/2000/svg" xmlns:xlink="http://www.w3.org/1999/xlink">
    <title>layout-form</title>
    <defs>
        <linearGradient x1="50%" y1="0%" x2="50%" y2="100%" id="linearGradient-1">
            <stop stop-color="#00C0FF" offset="0%"></stop>
            <stop stop-color="#007EFF" offset="100%"></stop>
        </linearGradient>
        <linearGradient x1="50%" y1="0%" x2="50%" y2="100%" id="linearGradient-2">
            <stop stop-color="#00B2FF" offset="0%"></stop>
            <stop stop-color="#007AFF" offset="100%"></stop>
        </linearGradient>
    </defs>
    <g id="layout-form" stroke="none" stroke-width="1" fill="none" fill-rule="evenodd">
        <g id="Group-9" transform="translate(2.000000, 4.000000)">
            <path d="M53,12 C54.6568542,12 56,13.3431458 56,15 L56,18 C56,19.6568542 54.6568542,21 53,21 L3,21 C1.34314575,21 2.02906125e-16,19.6568542 0,18 L0,15 C-2.02906125e-16,13.3431458 1.34314575,12 3,12 L53,12 Z M28.5,15 L5.5,15 C4.67157288,15 4,15.6715729 4,16.5 C4,17.2796961 4.59488808,17.9204487 5.35553999,17.9931334 L5.5,18 L28.5,18 C29.3284271,18 30,17.3284271 30,16.5 C30,15.6715729 29.3284271,15 28.5,15 Z M53,0 C54.6568542,-3.04359188e-16 56,1.34314575 56,3 L56,6 C56,7.65685425 54.6568542,9 53,9 L3,9 C1.34314575,9 2.02906125e-16,7.65685425 0,6 L0,3 C-2.02906125e-16,1.34314575 1.34314575,3.04359188e-16 3,0 L53,0 Z M34.5,3 L5.5,3 C4.67157288,3 4,3.67157288 4,4.5 C4,5.27969612 4.59488808,5.92044868 5.35553999,5.99313342 L5.5,6 L34.5,6 C35.3284271,6 36,5.32842712 36,4.5 C36,3.67157288 35.3284271,3 34.5,3 Z" id="Combined-Shape" fill="url(#linearGradient-1)" opacity="0.5"></path>
            <path d="M53,24 C54.6568542,24 56,25.3431458 56,27 L56,30 C56,31.6568542 54.6568542,33 53,33 L23,33 C21.3431458,33 20,31.6568542 20,30 L20,27 C20,25.3431458 21.3431458,24 23,24 L53,24 Z M50.5,27 L25.5,27 C24.6715729,27 24,27.6715729 24,28.5 C24,29.3284271 24.6715729,30 25.5,30 L25.5,30 L50.5,30 C51.3284271,30 52,29.3284271 52,28.5 C52,27.6715729 51.3284271,27 50.5,27 L50.5,27 Z" id="Combined-Shape" fill="url(#linearGradient-2)"></path>
        </g>
    </g>
</svg>