<?xml version="1.0" encoding="UTF-8"?>
<svg width="60px" height="42px" viewBox="0 0 60 42" version="1.1" xmlns="http://www.w3.org/2000/svg" xmlns:xlink="http://www.w3.org/1999/xlink">
    <title>layout-icon</title>
    <defs>
        <linearGradient x1="50%" y1="0%" x2="50%" y2="100%" id="linearGradient-1">
            <stop stop-color="#00B2FF" offset="0%"></stop>
            <stop stop-color="#007AFF" offset="100%"></stop>
        </linearGradient>
    </defs>
    <g id="layout-icon" stroke="none" stroke-width="1" fill="none" fill-rule="evenodd">
        <path d="M46.3625768,21.3334405 C46.3422755,21.9451544 46.0986592,22.5508357 45.631728,23.017767 L45.631728,23.017767 L32.9038059,35.745689 C31.9274952,36.7219997 30.3445827,36.7219997 29.368272,35.745689 C28.3919613,34.7693783 28.3919613,33.1864658 29.368272,32.2101551 L29.368272,32.2101551 L37.914,23.664 L15.5,23.6644661 C14.1192881,23.6644661 13,22.545178 13,21.1644661 C13,19.7837542 14.1192881,18.6644661 15.5,18.6644661 L37.765,18.664 L29.368272,10.267767 C28.3919613,9.29145622 28.3919613,7.70854378 29.368272,6.73223305 C30.3445827,5.75592232 31.9274952,5.75592232 32.9038059,6.73223305 L45.631728,19.4601551 C46.0986592,19.9270863 46.3422755,20.5327677 46.3625768,21.1444816 Z" id="Combined-Shape" fill="url(#linearGradient-1)"></path>
    </g>
</svg>