<?xml version="1.0" encoding="UTF-8"?>
<svg width="60px" height="42px" viewBox="0 0 60 42" version="1.1" xmlns="http://www.w3.org/2000/svg" xmlns:xlink="http://www.w3.org/1999/xlink">
    <title>layout-image</title>
    <defs>
        <linearGradient x1="50%" y1="0%" x2="50%" y2="100%" id="linearGradient-1">
            <stop stop-color="#00B2FF" offset="0%"></stop>
            <stop stop-color="#007AFF" offset="100%"></stop>
        </linearGradient>
        <path d="M5.04833272,37 C2.28690897,37 0.0483327203,34.7614237 0.0483327203,32 L0.0483327203,5 C0.0483327203,2.23857625 2.28690897,0 5.04833272,0 L41.0483327,0 C43.8097565,0 46.0483327,2.23857625 46.0483327,5 L46.0483327,32 C46.0483327,34.7614237 43.8097565,37 41.0483327,37 L5.04833272,37 Z M16.3472668,19.9045406 C15.5318084,19.1744865 14.280987,19.2355184 13.5404769,20.0414936 L13.5404769,20.0414936 L3.04833272,31.46 L3.04833272,32 C3.04833272,33.0543618 3.86421051,33.9181651 4.89907038,33.9945143 L5.04833272,34 L13.2009562,34.0012482 C15.5298181,31.3392035 18.2957021,28.1776134 21.4986082,24.5164779 L21.4986082,24.5164779 Z M38.6429976,12.513037 C37.8117012,11.7856992 36.5481786,11.8699744 35.8208409,12.7012707 L35.8208409,12.7012707 L17.1843327,34 L41.0483327,34 C42.1026945,34 42.9664978,33.1841222 43.042847,32.1492623 L43.0483327,32 L43.0483327,16.768 L38.7160973,12.5802718 C38.7041942,12.5687652 38.6921491,12.5574072 38.6799648,12.5462006 Z M10.5483327,6 C8.06305135,6 6.04833272,8.01471863 6.04833272,10.5 C6.04833272,12.9852814 8.06305135,15 10.5483327,15 C13.0336141,15 15.0483327,12.9852814 15.0483327,10.5 C15.0483327,8.01471863 13.0336141,6 10.5483327,6 Z" id="path-2"></path>
    </defs>
    <g id="layout-image" stroke="none" stroke-width="1" fill="none" fill-rule="evenodd">
        <g id="Group-9" transform="translate(6.951667, 3.000000)">
            <mask id="mask-3" fill="white">
                <use xlink:href="#path-2"></use>
            </mask>
            <use id="Combined-Shape" fill="url(#linearGradient-1)" xlink:href="#path-2"></use>
        </g>
    </g>
</svg>