<?xml version="1.0" encoding="UTF-8"?>
<svg width="60px" height="42px" viewBox="0 0 60 42" version="1.1" xmlns="http://www.w3.org/2000/svg" xmlns:xlink="http://www.w3.org/1999/xlink">
    <title>layout-list-cards</title>
    <defs>
        <linearGradient x1="50%" y1="0%" x2="50%" y2="100%" id="linearGradient-1">
            <stop stop-color="#00B2FF" offset="0%"></stop>
            <stop stop-color="#007AFF" offset="100%"></stop>
        </linearGradient>
    </defs>
    <g id="layout-list-cards" stroke="none" stroke-width="1" fill="none" fill-rule="evenodd">
        <path d="M57,3 C58.6568542,3 60,4.34314575 60,6 L60,36 C60,37.6568542 58.6568542,39 57,39 L35,39 C33.3431458,39 32,37.6568542 32,36 L32,6 C32,4.34314575 33.3431458,3 35,3 L57,3 Z M25,3 C26.6568542,3 28,4.34314575 28,6 L28,36 C28,37.6568542 26.6568542,39 25,39 L3,39 C1.34314575,39 2.02906125e-16,37.6568542 0,36 L0,6 C-2.02906125e-16,4.34314575 1.34314575,3 3,3 L25,3 Z M47,32 L36,32 C34.8954305,32 34,32.8954305 34,34 C34,35.1045695 34.8954305,36 36,36 L36,36 L47,36 C48.1045695,36 49,35.1045695 49,34 C49,32.8954305 48.1045695,32 47,32 L47,32 Z M15,32 L4,32 C2.8954305,32 2,32.8954305 2,34 C2,35.1045695 2.8954305,36 4,36 L4,36 L15,36 C16.1045695,36 17,35.1045695 17,34 C17,32.8954305 16.1045695,32 15,32 L15,32 Z M56,25 L36,25 C34.8954305,25 34,25.8954305 34,27 C34,28.1045695 34.8954305,29 36,29 L36,29 L56,29 C57.1045695,29 58,28.1045695 58,27 C58,25.8954305 57.1045695,25 56,25 L56,25 Z M24,25 L4,25 C2.8954305,25 2,25.8954305 2,27 C2,28.1045695 2.8954305,29 4,29 L4,29 L24,29 C25.1045695,29 26,28.1045695 26,27 C26,25.8954305 25.1045695,25 24,25 L24,25 Z M56,5 L36,5 C35.897478,5 35.7967577,5.00771401 35.6983878,5.02259327 C35.675732,5.02602542 35.6536498,5.02975388 35.6316937,5.03384105 C35.6035997,5.03906545 35.5753596,5.04495875 35.5473448,5.05144063 C35.5361752,5.05402523 35.5250806,5.0566936 35.5140225,5.05945401 L35.4223736,5.08467806 L35.4223736,5.08467806 L35.3950251,5.09313017 C35.3902876,5.09463182 35.3855578,5.09615064 35.3808357,5.09768655 C35.3424569,5.11016786 35.3045146,5.12380706 35.2671231,5.13854032 C35.2525897,5.14426751 35.2382073,5.15013136 35.2239097,5.15615667 C35.1906064,5.17018936 35.1576737,5.18514142 35.1252321,5.20094513 C35.1173982,5.20475996 35.1093354,5.20875412 35.1013037,5.21280083 C35.0677501,5.22971442 35.0350662,5.24735593 35.0029448,5.26586426 C34.9887141,5.27406052 34.9742871,5.28261392 34.9599783,5.291342 C34.9344026,5.30694193 34.9091673,5.32312499 34.8843278,5.33985081 C34.8674759,5.35120254 34.851099,5.36259383 34.8349029,5.37422115 C34.8122226,5.39050321 34.7898798,5.40726158 34.7679061,5.42446967 C34.7526847,5.43638526 34.7373563,5.44875274 34.7222166,5.46133943 C34.6999875,5.47982486 34.6783592,5.49860721 34.6571456,5.51783868 C34.6439318,5.5298141 34.6306541,5.54217858 34.6175468,5.5547196 C34.5927032,5.57850468 34.5689078,5.60246241 34.5457269,5.62700676 C34.538787,5.63435167 34.5316087,5.64206946 34.5244911,5.64984368 C34.5016502,5.67479879 34.479623,5.7001067 34.4582336,5.72596161 C34.4454509,5.74140474 34.4325743,5.75745648 34.419943,5.77370827 C34.4029314,5.79560328 34.3865602,5.81758731 34.3706364,5.83991246 C34.3597386,5.85518446 34.3488226,5.87095519 34.3381297,5.88688818 C34.3228726,5.90963639 34.3083857,5.9322012 34.2943457,5.95507 C34.2828595,5.97377274 34.2715233,5.99294074 34.2605012,6.01231081 C34.2005373,6.11764943 34.1497511,6.22929419 34.1094352,6.34582567 C34.0855214,6.41500204 34.0654063,6.48542022 34.0491628,6.55730627 C34.0169715,6.69982804 34,6.84793206 34,7 L34,7 L34,19 C34,19.0502077 34.0018501,19.0999833 34.0054857,19.1492623 L34,19 C34,19.1254691 34.0115536,19.2482396 34.0336551,19.3673058 C34.0570579,19.4935114 34.0924443,19.61589 34.1385403,19.7328769 C34.1442675,19.7474103 34.1501314,19.7617927 34.1561567,19.7760903 C34.1882288,19.8522059 34.2249261,19.9260067 34.2658643,19.9970552 C34.2740605,20.0112859 34.2826139,20.0257129 34.291342,20.0400217 C34.3069419,20.0655974 34.323125,20.0908327 34.3398508,20.1156722 C34.3512025,20.1325241 34.3625938,20.148901 34.3742211,20.1650971 C34.3905032,20.1877774 34.4072616,20.2101202 34.4244697,20.2320939 C34.4363853,20.2473153 34.4487527,20.2626437 34.4613394,20.2777834 C34.4798249,20.3000125 34.4986072,20.3216408 34.5178387,20.3428544 C34.5298141,20.3560682 34.5421786,20.3693459 34.5547196,20.3824532 C34.5785047,20.4072968 34.6024624,20.4310922 34.6270068,20.4542731 C34.6356315,20.4624223 34.6446499,20.4707881 34.6537449,20.4790713 C34.6775552,20.5007456 34.7015139,20.5215412 34.7259616,20.5417664 C34.7414047,20.5545491 34.7574565,20.5674257 34.7737083,20.580057 C34.7956033,20.5970686 34.8175873,20.6134398 34.8399125,20.6293636 C34.8551845,20.6402614 34.8709552,20.6511774 34.8868882,20.6618703 C34.9096364,20.6771274 34.9322012,20.6916143 34.95507,20.7056543 C34.9737727,20.7171405 34.9929407,20.7284767 35.0123108,20.7394988 C35.0421918,20.7565085 35.0728577,20.7729232 35.1039879,20.7885491 C35.1129597,20.793049 35.1214029,20.7972092 35.1298795,20.8013114 C35.1668871,20.8192358 35.2051358,20.836301 35.2439957,20.8521788 C35.2519792,20.8554378 35.2593654,20.8584013 35.2667733,20.8613218 C35.2924167,20.8714423 35.3189916,20.8812812 35.3458257,20.8905648 C35.3698532,20.898871 35.3936238,20.9065909 35.4175849,20.9138732 C35.4347583,20.9190954 35.4523213,20.9241728 35.4699819,20.9290142 C35.4989195,20.936945 35.5279908,20.944213 35.5573063,20.9508372 C35.5801944,20.9560069 35.6030565,20.9607511 35.626058,20.9651015 C35.6507952,20.969783 35.675917,20.9740425 35.7011935,20.9778291 C35.7476584,20.9847843 35.7944139,20.9901228 35.8416301,20.9938216 L35.8507377,20.9945143 L36,21 L56,21 C56.102522,21 56.2032423,20.992286 56.3016122,20.9774067 C56.3239308,20.9740257 56.3456794,20.9703593 56.3673058,20.9663449 C56.3957389,20.9610725 56.4243124,20.9551172 56.4526552,20.9485594 C56.4638248,20.9459748 56.4749194,20.9433064 56.4859775,20.940546 L56.5776264,20.9153219 L56.5776264,20.9153219 L56.6049749,20.9068698 C56.6097124,20.9053682 56.6144422,20.9038494 56.6191643,20.9023135 C56.6575431,20.8898321 56.6954854,20.8761929 56.7328769,20.8614597 C56.7474103,20.8557325 56.7617927,20.8498686 56.7760903,20.8438433 C56.8093936,20.8298106 56.8423263,20.8148586 56.8747679,20.7990549 C56.8826018,20.79524 56.8906646,20.7912459 56.8986963,20.7871992 C56.9322499,20.7702856 56.9649338,20.7526441 56.9970552,20.7341357 C57.0112859,20.7259395 57.0257129,20.7173861 57.0400217,20.708658 C57.0655974,20.6930581 57.0908327,20.676875 57.1156722,20.6601492 C57.1325241,20.6487975 57.148901,20.6374062 57.1650971,20.6257789 C57.1877774,20.6094968 57.2101202,20.5927384 57.2320939,20.5755303 C57.2473153,20.5636147 57.2626437,20.5512473 57.2777834,20.5386606 C57.3000125,20.5201751 57.3216408,20.5013928 57.3428544,20.4821613 C57.3560682,20.4701859 57.3693459,20.4578214 57.3824532,20.4452804 C57.4099331,20.4189714 57.4362303,20.3923504 57.4617696,20.3650124 C57.4675273,20.3588498 57.4733193,20.3525709 57.4790713,20.3462551 C57.5007456,20.3224448 57.5215412,20.2984861 57.5417664,20.2740384 C57.5545491,20.2585953 57.5674257,20.2425435 57.580057,20.2262917 C57.5970686,20.2043967 57.6134398,20.1824127 57.6293636,20.1600875 C57.6402614,20.1448155 57.6511774,20.1290448 57.6618703,20.1131118 C57.6771274,20.0903636 57.6916143,20.0677988 57.7056543,20.04493 C57.7171405,20.0262273 57.7284767,20.0070593 57.7394988,19.9876892 C57.7994627,19.8823506 57.8502489,19.7707058 57.8905648,19.6541743 C57.9460067,19.4937955 57.9815728,19.3246748 57.9945143,19.1492623 L58,19 L58,7 C58,5.8954305 57.1045695,5 56,5 Z M3.38083567,5.09768655 L3.28734891,5.13069815 C3.28058932,5.13327667 3.27384731,5.1358908 3.26712311,5.13854032 C3.25258967,5.14426751 3.23820733,5.15013136 3.2239097,5.15615667 C3.19060645,5.17018936 3.15767368,5.18514142 3.12523213,5.20094513 C3.11739818,5.20475996 3.10933543,5.20875412 3.10130369,5.21280083 C3.06775014,5.22971442 3.03506619,5.24735593 3.00294479,5.26586426 C2.98871412,5.27406052 2.97428712,5.28261392 2.95997834,5.291342 C2.93440259,5.30694193 2.90916731,5.32312499 2.88432784,5.33985081 C2.86747589,5.35120254 2.85109897,5.36259383 2.83490293,5.37422115 C2.81222262,5.39050321 2.7898798,5.40726158 2.76790607,5.42446967 C2.75268473,5.43638526 2.7373563,5.44875274 2.7222166,5.46133943 C2.69998753,5.47982486 2.67835923,5.49860721 2.65714561,5.51783868 C2.64393176,5.5298141 2.63065413,5.54217858 2.61754679,5.5547196 C2.59270319,5.57850468 2.56890778,5.60246241 2.54572694,5.62700676 C2.538787,5.63435167 2.53160871,5.64206946 2.52449105,5.64984368 C2.50165021,5.67479879 2.47962297,5.7001067 2.45823359,5.72596161 C2.44545086,5.74140474 2.43257431,5.75745648 2.41994297,5.77370827 C2.40293139,5.79560328 2.3865602,5.81758731 2.37063639,5.83991246 C2.35973864,5.85518446 2.34882261,5.87095519 2.33812965,5.88688818 C2.32287264,5.90963639 2.30838565,5.9322012 2.29434569,5.95507 C2.28285952,5.97377274 2.27152327,5.99294074 2.26050122,6.01231081 C2.20053726,6.11764943 2.14975105,6.22929419 2.1094352,6.34582567 C2.08552137,6.41500204 2.06540632,6.48542022 2.04916278,6.55730627 C2.01697153,6.69982804 2,6.84793206 2,7 L2,7 L2,19 C2,19.0502077 2.00185006,19.0999833 2.00548574,19.1492623 L2,19 C2,19.1254691 2.01155365,19.2482396 2.03365507,19.3673058 C2.0570579,19.4935114 2.09244433,19.61589 2.13854032,19.7328769 C2.14426751,19.7474103 2.15013136,19.7617927 2.15615667,19.7760903 C2.18822884,19.8522059 2.22492615,19.9260067 2.26586426,19.9970552 C2.27406052,20.0112859 2.28261392,20.0257129 2.291342,20.0400217 C2.30630082,20.0645463 2.32179777,20.088761 2.33779449,20.1126123 C2.34869156,20.1288515 2.3595367,20.1445247 2.37059773,20.1600333 C2.3865602,20.1824127 2.40293139,20.2043967 2.41973689,20.2260265 C2.43326523,20.2434409 2.44716329,20.2607319 2.46133943,20.2777834 C2.47982486,20.3000125 2.49860721,20.3216408 2.51783868,20.3428544 C2.5298141,20.3560682 2.54217858,20.3693459 2.5547196,20.3824532 C2.57850468,20.4072968 2.60246241,20.4310922 2.62700676,20.4542731 C2.63563152,20.4624223 2.64464985,20.4707881 2.65374488,20.4790713 C2.67629218,20.4995959 2.69893444,20.5192994 2.7220155,20.5384934 C2.73865615,20.5523413 2.75606431,20.5663437 2.77370827,20.580057 C2.79560328,20.5970686 2.81758731,20.6134398 2.83991246,20.6293636 C2.85421977,20.639573 2.86900583,20.6498268 2.88393495,20.6598846 C2.90756676,20.6757973 2.93115212,20.6909703 2.95507,20.7056543 C2.97377274,20.7171405 2.99294074,20.7284767 3.01231081,20.7394988 C3.04121447,20.7559522 3.0708718,20.7718591 3.10096469,20.7870283 C3.11091573,20.7920408 3.12037667,20.7967126 3.12987953,20.8013114 C3.16688711,20.8192358 3.20513578,20.836301 3.24399565,20.8521788 C3.25197918,20.8554378 3.25936544,20.8584013 3.26677333,20.8613218 C3.29241669,20.8714423 3.31899162,20.8812812 3.34582567,20.8905648 C3.36985316,20.898871 3.39362379,20.9065909 3.41758493,20.9138732 C3.43475827,20.9190954 3.4523213,20.9241728 3.46998194,20.9290142 C3.49891949,20.936945 3.52799082,20.944213 3.55730627,20.9508372 C3.58019435,20.9560069 3.60305654,20.9607511 3.62605799,20.9651015 C3.65079515,20.969783 3.67591696,20.9740425 3.70119347,20.9778291 C3.74765843,20.9847843 3.79441393,20.9901228 3.84163008,20.9938216 L3.85073766,20.9945143 L4,21 L24,21 C24.102522,21 24.2032423,20.992286 24.3016122,20.9774067 C24.3266283,20.973617 24.3510441,20.9694492 24.3753047,20.9648432 C24.4010282,20.9599645 24.4269367,20.95451 24.4526552,20.9485594 C24.4638248,20.9459748 24.4749194,20.9433064 24.4859775,20.940546 L24.5776264,20.9153219 L24.5776264,20.9153219 L24.6049749,20.9068698 C24.6097124,20.9053682 24.6144422,20.9038494 24.6191643,20.9023135 C24.6575431,20.8898321 24.6954854,20.8761929 24.7328769,20.8614597 C24.7474103,20.8557325 24.7617927,20.8498686 24.7760903,20.8438433 C24.8093936,20.8298106 24.8423263,20.8148586 24.8747679,20.7990549 C24.8826018,20.79524 24.8906646,20.7912459 24.8986963,20.7871992 C24.9322499,20.7702856 24.9649338,20.7526441 24.9970552,20.7341357 C25.0130045,20.7249496 25.0291213,20.7153619 25.0450898,20.7055562 C25.0688479,20.6909703 25.0924332,20.6757973 25.1156722,20.6601492 C25.1325241,20.6487975 25.148901,20.6374062 25.1650971,20.6257789 C25.1877774,20.6094968 25.2101202,20.5927384 25.2320939,20.5755303 C25.2473153,20.5636147 25.2626437,20.5512473 25.2777834,20.5386606 C25.3000125,20.5201751 25.3216408,20.5013928 25.3428544,20.4821613 C25.3560682,20.4701859 25.3693459,20.4578214 25.3824532,20.4452804 C25.4099331,20.4189714 25.4362303,20.3923504 25.4617696,20.3650124 C25.4684289,20.3578848 25.4751093,20.3506285 25.4817363,20.343323 C25.5025399,20.3203754 25.5224142,20.2974308 25.5417664,20.2740384 C25.5545491,20.2585953 25.5674257,20.2425435 25.580057,20.2262917 C25.5970686,20.2043967 25.6134398,20.1824127 25.6293636,20.1600875 C25.6402614,20.1448155 25.6511774,20.1290448 25.6618703,20.1131118 C25.6782022,20.088761 25.6936992,20.0645463 25.7086814,20.0399833 C25.7191562,20.0228131 25.7294579,20.005335 25.7394988,19.9876892 C25.7994627,19.8823506 25.8502489,19.7707058 25.8905648,19.6541743 C25.9460067,19.4937955 25.9815728,19.3246748 25.9945143,19.1492623 L26,19 L26,7 C26,5.8954305 25.1045695,5 24,5 L4,5 C3.89747797,5 3.79675765,5.00771401 3.69838779,5.02259327 C3.67606921,5.02597433 3.6543206,5.02964071 3.6326942,5.03365507 C3.60426107,5.03892752 3.57568759,5.04488285 3.54734481,5.05144063 C3.53617519,5.05402523 3.52508064,5.0566936 3.51402252,5.05945401 L3.42237357,5.08467806 L3.42237357,5.08467806 L3.3950251,5.09313017 C3.39028763,5.09463182 3.3855578,5.09615064 3.38083567,5.09768655 Z" id="Combined-Shape" fill="url(#linearGradient-1)"></path>
    </g>
</svg>