<?xml version="1.0" encoding="UTF-8"?>
<svg width="60px" height="42px" viewBox="0 0 60 42" version="1.1" xmlns="http://www.w3.org/2000/svg" xmlns:xlink="http://www.w3.org/1999/xlink">
    <title>layout-card-vert</title>
    <defs>
        <linearGradient x1="50%" y1="0%" x2="50%" y2="65.1793029%" id="linearGradient-1">
            <stop stop-color="#00B2FF" offset="0%"></stop>
            <stop stop-color="#008FFF" offset="68.6679755%"></stop>
            <stop stop-color="#007AFF" stop-opacity="0" offset="100%"></stop>
        </linearGradient>
    </defs>
    <g id="layout-card-vert" stroke="none" stroke-width="1" fill="none" fill-rule="evenodd">
        <g id="Group-12">
            <g id="Group-9-Copy-6" fill="url(#linearGradient-1)">
                <path d="M25,34 C26.6568542,34 28,35.3431458 28,37 L28,61 C28,62.6568542 26.6568542,64 25,64 L3,64 C1.34314575,64 6.46995335e-16,62.6568542 0,61 L0,37 C2.41183085e-16,35.3431458 1.34314575,34 3,34 L25,34 Z M57,34 C58.6568542,34 60,35.3431458 60,37 L60,61 C60,62.6568542 58.6568542,64 57,64 L35,64 C33.3431458,64 32,62.6568542 32,61 L32,37 C32,35.3431458 33.3431458,34 35,34 L57,34 Z M15,57 L4,57 C2.8954305,57 2,57.8954305 2,59 C2,60.0543618 2.81587779,60.9181651 3.85073766,60.9945143 L4,61 L15,61 C16.1045695,61 17,60.1045695 17,59 C17,57.8954305 16.1045695,57 15,57 Z M47,57 L36,57 C34.8954305,57 34,57.8954305 34,59 C34,60.0543618 34.8158778,60.9181651 35.8507377,60.9945143 L36,61 L47,61 C48.1045695,61 49,60.1045695 49,59 C49,57.8954305 48.1045695,57 47,57 Z M24,50 L4,50 C2.8954305,50 2,50.8954305 2,52 C2,53.0543618 2.81587779,53.9181651 3.85073766,53.9945143 L4,54 L24,54 C25.1045695,54 26,53.1045695 26,52 C26,50.8954305 25.1045695,50 24,50 Z M56,50 L36,50 C34.8954305,50 34,50.8954305 34,52 C34,53.0543618 34.8158778,53.9181651 35.8507377,53.9945143 L36,54 L56,54 C57.1045695,54 58,53.1045695 58,52 C58,50.8954305 57.1045695,50 56,50 Z M24,36 L4,36 C2.9456382,36 2.08183488,36.8158778 2.00548574,37.8507377 L2,38 L2,45 C2,46.0543618 2.81587779,46.9181651 3.85073766,46.9945143 L4,47 L24,47 C25.0543618,47 25.9181651,46.1841222 25.9945143,45.1492623 L26,45 L26,38 C26,36.8954305 25.1045695,36 24,36 Z M56,36 L36,36 C34.9456382,36 34.0818349,36.8158778 34.0054857,37.8507377 L34,38 L34,45 C34,46.0543618 34.8158778,46.9181651 35.8507377,46.9945143 L36,47 L56,47 C57.0543618,47 57.9181651,46.1841222 57.9945143,45.1492623 L58,45 L58,38 C58,36.8954305 57.1045695,36 56,36 Z M25,0 C26.6568542,-1.33185217e-15 28,1.34314575 28,3 L28,27 C28,28.6568542 26.6568542,30 25,30 L3,30 C1.34314575,30 6.46995335e-16,28.6568542 0,27 L0,3 C2.41183085e-16,1.34314575 1.34314575,7.48448398e-16 3,0 L25,0 Z M57,0 C58.6568542,-1.33185217e-15 60,1.34314575 60,3 L60,27 C60,28.6568542 58.6568542,30 57,30 L35,30 C33.3431458,30 32,28.6568542 32,27 L32,3 C32,1.34314575 33.3431458,7.48448398e-16 35,0 L57,0 Z M15,23 L4,23 C2.8954305,23 2,23.8954305 2,25 C2,26.0543618 2.81587779,26.9181651 3.85073766,26.9945143 L4,27 L15,27 C16.1045695,27 17,26.1045695 17,25 C17,23.8954305 16.1045695,23 15,23 Z M47,23 L36,23 C34.8954305,23 34,23.8954305 34,25 C34,26.0543618 34.8158778,26.9181651 35.8507377,26.9945143 L36,27 L47,27 C48.1045695,27 49,26.1045695 49,25 C49,23.8954305 48.1045695,23 47,23 Z M24,16 L4,16 C2.8954305,16 2,16.8954305 2,18 C2,19.0543618 2.81587779,19.9181651 3.85073766,19.9945143 L4,20 L24,20 C25.1045695,20 26,19.1045695 26,18 C26,16.8954305 25.1045695,16 24,16 Z M56,16 L36,16 C34.8954305,16 34,16.8954305 34,18 C34,19.0543618 34.8158778,19.9181651 35.8507377,19.9945143 L36,20 L56,20 C57.1045695,20 58,19.1045695 58,18 C58,16.8954305 57.1045695,16 56,16 Z M24,2 L4,2 C2.9456382,2 2.08183488,2.81587779 2.00548574,3.85073766 L2,4 L2,11 C2,12.0543618 2.81587779,12.9181651 3.85073766,12.9945143 L4,13 L24,13 C25.0543618,13 25.9181651,12.1841222 25.9945143,11.1492623 L26,11 L26,4 C26,2.8954305 25.1045695,2 24,2 Z M56,2 L36,2 C34.9456382,2 34.0818349,2.81587779 34.0054857,3.85073766 L34,4 L34,11 C34,12.0543618 34.8158778,12.9181651 35.8507377,12.9945143 L36,13 L56,13 C57.0543618,13 57.9181651,12.1841222 57.9945143,11.1492623 L58,11 L58,4 C58,2.8954305 57.1045695,2 56,2 Z" id="Combined-Shape"></path>
            </g>
            <g id="Group-9-Copy-7" transform="translate(32.000000, 0.000000)"></g>
        </g>
    </g>
</svg>