<?xml version="1.0" encoding="UTF-8"?>
<svg width="86px" height="42px" viewBox="0 0 86 42" version="1.1" xmlns="http://www.w3.org/2000/svg" xmlns:xlink="http://www.w3.org/1999/xlink">
    <title>layout-card-horiz</title>
    <defs>
        <linearGradient x1="100%" y1="47.8621021%" x2="68.903963%" y2="47.8621021%" id="linearGradient-1">
            <stop stop-color="#EEEEEE" stop-opacity="0" offset="0%"></stop>
            <stop stop-color="#D8D8D8" offset="100%"></stop>
        </linearGradient>
        <rect id="path-2" x="0" y="0" width="72" height="46"></rect>
        <linearGradient x1="50%" y1="0%" x2="50%" y2="100%" id="linearGradient-4">
            <stop stop-color="#00B2FF" offset="0%"></stop>
            <stop stop-color="#007AFF" offset="100%"></stop>
        </linearGradient>
    </defs>
    <g id="layout-card-horiz" stroke="none" stroke-width="1" fill="none" fill-rule="evenodd">
        <g id="Group-12" transform="translate(15.000000, -2.000000)">
            <g id="Group-9-Copy-5">
                <mask id="mask-3" fill="white">
                    <use xlink:href="#path-2"></use>
                </mask>
                <use id="Rectangle" fill="url(#linearGradient-1)" xlink:href="#path-2"></use>
                <path d="M57,5 C58.6568542,5 60,6.34314575 60,8 L60,38 C60,39.6568542 58.6568542,41 57,41 L35,41 C33.3431458,41 32,39.6568542 32,38 L32,8 C32,6.34314575 33.3431458,5 35,5 L57,5 Z M89,5 C90.6568542,5 92,6.34314575 92,8 L92,38 C92,39.6568542 90.6568542,41 89,41 L67,41 C65.3431458,41 64,39.6568542 64,38 L64,8 C64,6.34314575 65.3431458,5 67,5 L89,5 Z M25,5 C26.6568542,5 28,6.34314575 28,8 L28,38 C28,39.6568542 26.6568542,41 25,41 L3,41 C1.34314575,41 2.02906125e-16,39.6568542 0,38 L0,8 C-2.02906125e-16,6.34314575 1.34314575,5 3,5 L25,5 Z M47,34 L36,34 C34.8954305,34 34,34.8954305 34,36 C34,37.0543618 34.8158778,37.9181651 35.8507377,37.9945143 L36,38 L47,38 C48.1045695,38 49,37.1045695 49,36 C49,34.8954305 48.1045695,34 47,34 Z M79,34 L68,34 C66.8954305,34 66,34.8954305 66,36 C66,37.0543618 66.8158778,37.9181651 67.8507377,37.9945143 L68,38 L79,38 C80.1045695,38 81,37.1045695 81,36 C81,34.8954305 80.1045695,34 79,34 Z M15,34 L4,34 C2.8954305,34 2,34.8954305 2,36 C2,37.0543618 2.81587779,37.9181651 3.85073766,37.9945143 L4,38 L15,38 C16.1045695,38 17,37.1045695 17,36 C17,34.8954305 16.1045695,34 15,34 Z M56,27 L36,27 C34.8954305,27 34,27.8954305 34,29 C34,30.0543618 34.8158778,30.9181651 35.8507377,30.9945143 L36,31 L56,31 C57.1045695,31 58,30.1045695 58,29 C58,27.8954305 57.1045695,27 56,27 Z M88,27 L68,27 C66.8954305,27 66,27.8954305 66,29 C66,30.0543618 66.8158778,30.9181651 67.8507377,30.9945143 L68,31 L88,31 C89.1045695,31 90,30.1045695 90,29 C90,27.8954305 89.1045695,27 88,27 Z M24,27 L4,27 C2.8954305,27 2,27.8954305 2,29 C2,30.0543618 2.81587779,30.9181651 3.85073766,30.9945143 L4,31 L24,31 C25.1045695,31 26,30.1045695 26,29 C26,27.8954305 25.1045695,27 24,27 Z M56,7 L36,7 C34.9456382,7 34.0818349,7.81587779 34.0054857,8.85073766 L34,9 L34,21 C34,22.0543618 34.8158778,22.9181651 35.8507377,22.9945143 L36,23 L56,23 C57.0543618,23 57.9181651,22.1841222 57.9945143,21.1492623 L58,21 L58,9 C58,7.8954305 57.1045695,7 56,7 Z M88,7 L68,7 C66.9456382,7 66.0818349,7.81587779 66.0054857,8.85073766 L66,9 L66,21 C66,22.0543618 66.8158778,22.9181651 67.8507377,22.9945143 L68,23 L88,23 C89.0543618,23 89.9181651,22.1841222 89.9945143,21.1492623 L90,21 L90,9 C90,7.8954305 89.1045695,7 88,7 Z M24,7 L4,7 C2.9456382,7 2.08183488,7.81587779 2.00548574,8.85073766 L2,9 L2,21 C2,22.0543618 2.81587779,22.9181651 3.85073766,22.9945143 L4,23 L24,23 C25.0543618,23 25.9181651,22.1841222 25.9945143,21.1492623 L26,21 L26,9 C26,7.8954305 25.1045695,7 24,7 Z" id="Combined-Shape" fill="url(#linearGradient-4)" mask="url(#mask-3)"></path>
            </g>
            <g id="Group-9-Copy-6" transform="translate(0.000000, 5.000000)"></g>
        </g>
    </g>
</svg>