<?xml version="1.0" encoding="UTF-8"?>
<svg width="60px" height="42px" viewBox="0 0 60 42" version="1.1" xmlns="http://www.w3.org/2000/svg" xmlns:xlink="http://www.w3.org/1999/xlink">
    <title>layout-list-basic</title>
    <defs>
        <linearGradient x1="50%" y1="0%" x2="50%" y2="100%" id="linearGradient-1">
            <stop stop-color="#00B2FF" offset="0%"></stop>
            <stop stop-color="#007AFF" offset="100%"></stop>
        </linearGradient>
    </defs>
    <g id="layout-list-basic" stroke="none" stroke-width="1" fill="none" fill-rule="evenodd">
        <path d="M10,25 C11.6568542,25 13,26.3431458 13,28 L13,33 C13,34.6568542 11.6568542,36 10,36 L5,36 C3.34314575,36 2,34.6568542 2,33 L2,28 C2,26.3431458 3.34314575,25 5,25 L10,25 Z M56,25 C57.1045695,25 58,25.8954305 58,27 C58,28.1045695 57.1045695,29 56,29 L18,29 C16.8954305,29 16,28.1045695 16,27 C16,25.8954305 16.8954305,25 18,25 L56,25 Z M10,6 C11.6568542,6 13,7.34314575 13,9 L13,14 C13,15.6568542 11.6568542,17 10,17 L5,17 C3.34314575,17 2,15.6568542 2,14 L2,9 C2,7.34314575 3.34314575,6 5,6 L10,6 Z M56,6 C57.1045695,6 58,6.8954305 58,8 C58,9.1045695 57.1045695,10 56,10 L18,10 C16.8954305,10 16,9.1045695 16,8 C16,6.8954305 16.8954305,6 18,6 L56,6 Z" id="Combined-Shape" fill="url(#linearGradient-1)"></path>
        <path d="M18,13 L56,13 C57.1045695,13 58,13.8954305 58,15 C58,16.1045695 57.1045695,17 56,17 L18,17 C16.8954305,17 16,16.1045695 16,15 C16,13.8954305 16.8954305,13 18,13 Z" id="Rectangle-Copy-16" fill="#00AEFF" opacity="0.5"></path>
        <path d="M18,32 L56,32 C57.1045695,32 58,32.8954305 58,34 C58,35.1045695 57.1045695,36 56,36 L18,36 C16.8954305,36 16,35.1045695 16,34 C16,32.8954305 16.8954305,32 18,32 Z" id="Rectangle-Copy-17" fill="#00AEFF" opacity="0.5"></path>
    </g>
</svg>