<?xml version="1.0" encoding="UTF-8"?>
<svg width="60px" height="42px" viewBox="0 0 60 42" version="1.1" xmlns="http://www.w3.org/2000/svg" xmlns:xlink="http://www.w3.org/1999/xlink">
    <title>layout-list-rich</title>
    <defs>
        <linearGradient x1="50%" y1="0%" x2="50%" y2="100%" id="linearGradient-1">
            <stop stop-color="#00B2FF" offset="0%"></stop>
            <stop stop-color="#007AFF" offset="100%"></stop>
        </linearGradient>
    </defs>
    <g id="layout-list-rich" stroke="none" stroke-width="1" fill="none" fill-rule="evenodd">
        <path d="M13.9516673,24 C15.6085215,24 16.9516673,25.3431458 16.9516673,27 L16.9516673,36 C16.9516673,37.6568542 15.6085215,39 13.9516673,39 L4.95166728,39 C3.29481303,39 1.95166728,37.6568542 1.95166728,36 L1.95166728,27 C1.95166728,25.3431458 3.29481303,24 4.95166728,24 L13.9516673,24 Z M55.9516673,24 C57.0562368,24 57.9516673,24.8954305 57.9516673,26 C57.9516673,27.1045695 57.0562368,28 55.9516673,28 L21.9516673,28 C20.8470978,28 19.9516673,27.1045695 19.9516673,26 C19.9516673,24.8954305 20.8470978,24 21.9516673,24 L55.9516673,24 Z M13.9516673,2 C15.6085215,2 16.9516673,3.34314575 16.9516673,5 L16.9516673,14 C16.9516673,15.6568542 15.6085215,17 13.9516673,17 L4.95166728,17 C3.29481303,17 1.95166728,15.6568542 1.95166728,14 L1.95166728,5 C1.95166728,3.34314575 3.29481303,2 4.95166728,2 L13.9516673,2 Z M55.9516673,2 C57.0562368,2 57.9516673,2.8954305 57.9516673,4 C57.9516673,5.1045695 57.0562368,6 55.9516673,6 L21.9516673,6 C20.8470978,6 19.9516673,5.1045695 19.9516673,4 C19.9516673,2.8954305 20.8470978,2 21.9516673,2 L55.9516673,2 Z" id="Combined-Shape" fill="url(#linearGradient-1)"></path>
        <path d="M22.9516673,9 L54.9516673,9 C56.6085215,9 57.9516673,10.3431458 57.9516673,12 L57.9516673,14 C57.9516673,15.6568542 56.6085215,17 54.9516673,17 L22.9516673,17 C21.294813,17 19.9516673,15.6568542 19.9516673,14 L19.9516673,12 C19.9516673,10.3431458 21.294813,9 22.9516673,9 Z" id="Rectangle-Copy-16" fill="#00AEFF" opacity="0.5"></path>
        <path d="M22.9516673,31 L54.9516673,31 C56.6085215,31 57.9516673,32.3431458 57.9516673,34 L57.9516673,36 C57.9516673,37.6568542 56.6085215,39 54.9516673,39 L22.9516673,39 C21.294813,39 19.9516673,37.6568542 19.9516673,36 L19.9516673,34 C19.9516673,32.3431458 21.294813,31 22.9516673,31 Z" id="Rectangle-Copy-17" fill="#00AEFF" opacity="0.5"></path>
    </g>
</svg>