<?xml version="1.0" encoding="UTF-8"?>
<svg width="60px" height="42px" viewBox="0 0 60 42" version="1.1" xmlns="http://www.w3.org/2000/svg" xmlns:xlink="http://www.w3.org/1999/xlink">
    <title>layout-list-compact</title>
    <defs>
        <linearGradient x1="50%" y1="0%" x2="50%" y2="100%" id="linearGradient-1">
            <stop stop-color="#00B2FF" offset="0%"></stop>
            <stop stop-color="#007AFF" offset="100%"></stop>
        </linearGradient>
    </defs>
    <g id="layout-list-compact" stroke="none" stroke-width="1" fill="none" fill-rule="evenodd">
        <path d="M56,34 C57.1045695,34 58,34.8954305 58,36 C58,37.1045695 57.1045695,38 56,38 L10,38 C8.8954305,38 8,37.1045695 8,36 C8,34.8954305 8.8954305,34 10,34 L56,34 Z M4,34 C5.1045695,34 6,34.8954305 6,36 C6,37.1045695 5.1045695,38 4,38 C2.8954305,38 2,37.1045695 2,36 C2,34.8954305 2.8954305,34 4,34 Z M56,24 C57.1045695,24 58,24.8954305 58,26 C58,27.1045695 57.1045695,28 56,28 L10,28 C8.8954305,28 8,27.1045695 8,26 C8,24.8954305 8.8954305,24 10,24 L56,24 Z M4,24 C5.1045695,24 6,24.8954305 6,26 C6,27.1045695 5.1045695,28 4,28 C2.8954305,28 2,27.1045695 2,26 C2,24.8954305 2.8954305,24 4,24 Z M56,14 C57.1045695,14 58,14.8954305 58,16 C58,17.1045695 57.1045695,18 56,18 L10,18 C8.8954305,18 8,17.1045695 8,16 C8,14.8954305 8.8954305,14 10,14 L56,14 Z M4,14 C5.1045695,14 6,14.8954305 6,16 C6,17.1045695 5.1045695,18 4,18 C2.8954305,18 2,17.1045695 2,16 C2,14.8954305 2.8954305,14 4,14 Z M56,4 C57.1045695,4 58,4.8954305 58,6 C58,7.1045695 57.1045695,8 56,8 L10,8 C8.8954305,8 8,7.1045695 8,6 C8,4.8954305 8.8954305,4 10,4 L56,4 Z M4,4 C5.1045695,4 6,4.8954305 6,6 C6,7.1045695 5.1045695,8 4,8 C2.8954305,8 2,7.1045695 2,6 C2,4.8954305 2.8954305,4 4,4 Z" id="Combined-Shape" fill="url(#linearGradient-1)"></path>
    </g>
</svg>