<?xml version="1.0" encoding="UTF-8"?>
<svg width="60px" height="42px" viewBox="0 0 60 42" version="1.1" xmlns="http://www.w3.org/2000/svg" xmlns:xlink="http://www.w3.org/1999/xlink">
    <title>layout-map</title>
    <defs>
        <linearGradient x1="50%" y1="0%" x2="50%" y2="100%" id="linearGradient-1">
            <stop stop-color="#00B1FF" offset="0%"></stop>
            <stop stop-color="#007AFF" offset="100%"></stop>
        </linearGradient>
    </defs>
    <g id="layout-map" stroke="none" stroke-width="1" fill="none" fill-rule="evenodd">
        <path d="M48,5 C50.7614237,5 53,7.23857625 53,10 L53,32 C53,34.7614237 50.7614237,37 48,37 L12,37 C9.23857625,37 7,34.7614237 7,32 L7,10 C7,7.23857625 9.23857625,5 12,5 L48,5 Z M30.0503043,11 L29.9496957,11 C25.5592,11 22,14.5515858 22,18.9326889 C22,22.5978656 24.6289675,25.173471 26.4666867,27.6561899 C28.0746911,29.8285689 29.0761634,29.9938172 29.7337321,30.0011861 L29.7337321,30.0011861 L29.8694715,30.0010225 C29.8912494,30.0008171 29.9126125,30.0005789 29.9335728,30.000392 L30.0199362,30.0005422 C30.3241517,30.0101087 31.7032203,30.1362673 33.5695787,27.6561899 C35.4924935,25.1009586 38,22.5978656 38,18.9326889 C38,14.5515858 34.4408,11 30.0503043,11 L30.0503043,11 Z M30.000055,15.7500585 C31.7949784,15.7500585 33.2500514,17.2053275 33.2500514,19.0004928 C33.2500514,20.795658 31.7949784,22.250927 30.000055,22.250927 C28.2051315,22.250927 26.7500585,20.795658 26.7500585,19.0004928 C26.7500585,17.2053275 28.2051315,15.7500585 30.000055,15.7500585 Z" id="Combined-Shape" fill="url(#linearGradient-1)"></path>
    </g>
</svg>