<?xml version="1.0" encoding="UTF-8"?>
<svg width="60px" height="42px" viewBox="0 0 60 42" version="1.1" xmlns="http://www.w3.org/2000/svg" xmlns:xlink="http://www.w3.org/1999/xlink">
    <title>layout-text</title>
    <defs>
        <linearGradient x1="50%" y1="0%" x2="50%" y2="100%" id="linearGradient-1">
            <stop stop-color="#00B2FF" offset="0%"></stop>
            <stop stop-color="#007AFF" offset="100%"></stop>
        </linearGradient>
    </defs>
    <g id="layout-text" stroke="none" stroke-width="1" fill="none" fill-rule="evenodd">
        <path d="M36,30 C37.1045695,30 38,30.8954305 38,32 C38,33.1045695 37.1045695,34 36,34 L4,34 C2.8954305,34 2,33.1045695 2,32 C2,30.8954305 2.8954305,30 4,30 L36,30 Z M56,23 C57.1045695,23 58,23.8954305 58,25 C58,26.1045695 57.1045695,27 56,27 L4,27 C2.8954305,27 2,26.1045695 2,25 C2,23.8954305 2.8954305,23 4,23 L56,23 Z M56,16 C57.1045695,16 58,16.8954305 58,18 C58,19.1045695 57.1045695,20 56,20 L4,20 C2.8954305,20 2,19.1045695 2,18 C2,16.8954305 2.8954305,16 4,16 L56,16 Z M56,9 C57.1045695,9 58,9.8954305 58,11 C58,12.1045695 57.1045695,13 56,13 L4,13 C2.8954305,13 2,12.1045695 2,11 C2,9.8954305 2.8954305,9 4,9 L56,9 Z" id="Combined-Shape" fill="url(#linearGradient-1)"></path>
    </g>
</svg>