<?xml version="1.0" encoding="UTF-8"?>
<svg width="56px" height="25px" viewBox="0 0 56 25" version="1.1" xmlns="http://www.w3.org/2000/svg" xmlns:xlink="http://www.w3.org/1999/xlink">
    <title>Combined Shape</title>
    <defs>
        <linearGradient x1="50%" y1="0%" x2="50%" y2="100%" id="linearGradient-1">
            <stop stop-color="#2FDAFF" offset="0%"></stop>
            <stop stop-color="#4060FF" offset="100%"></stop>
        </linearGradient>
    </defs>
    <g id="Page-1" stroke="none" stroke-width="1" fill="none" fill-rule="evenodd">
        <g id="Desktop-Copy-2" transform="translate(-212.000000, -133.000000)" fill="url(#linearGradient-1)">
            <g id="Group-15" transform="translate(100.000000, 82.000000)">
                <g id="Group-3-Copy-7" transform="translate(9.951667, 0.000000)">
                    <g id="Group-4-Copy-18" transform="translate(87.048333, 31.000000)">
                        <g id="Group-9" transform="translate(15.000000, 20.000000)">
                            <path d="M34,21 C35.1045695,21 36,21.8954305 36,23 C36,24.1045695 35.1045695,25 34,25 L2,25 C0.8954305,25 1.3527075e-16,24.1045695 0,23 C-1.3527075e-16,21.8954305 0.8954305,21 2,21 L34,21 Z M54,14 C55.1045695,14 56,14.8954305 56,16 C56,17.1045695 55.1045695,18 54,18 L2,18 C0.8954305,18 1.3527075e-16,17.1045695 0,16 C-1.3527075e-16,14.8954305 0.8954305,14 2,14 L54,14 Z M54,7 C55.1045695,7 56,7.8954305 56,9 C56,10.1045695 55.1045695,11 54,11 L2,11 C0.8954305,11 1.3527075e-16,10.1045695 0,9 C-1.3527075e-16,7.8954305 0.8954305,7 2,7 L54,7 Z M54,0 C55.1045695,-2.02906125e-16 56,0.8954305 56,2 C56,3.1045695 55.1045695,4 54,4 L2,4 C0.8954305,4 1.3527075e-16,3.1045695 0,2 C-1.3527075e-16,0.8954305 0.8954305,2.02906125e-16 2,0 L54,0 Z" id="Combined-Shape"></path>
                        </g>
                    </g>
                </g>
            </g>
        </g>
    </g>
</svg>