<?xml version="1.0" encoding="UTF-8"?>
<svg width="38px" height="38px" viewBox="0 0 38 38" version="1.1" xmlns="http://www.w3.org/2000/svg" xmlns:xlink="http://www.w3.org/1999/xlink">
    <title>menu-data</title>
    <defs>
        <linearGradient x1="50%" y1="0.505439385%" x2="50%" y2="100%" id="linearGradient-1">
            <stop stop-color="#D0DEEE" offset="0%"></stop>
            <stop stop-color="#8597B6" offset="100%"></stop>
        </linearGradient>
    </defs>
    <g id="menu-data" stroke="none" stroke-width="1" fill="none" fill-rule="evenodd">
        <path d="M34,29 C34,33.5909529 27.1605475,36.5 19,36.5 C10.9649994,36.5 4.21075738,33.6797735 4.00483632,29.2106914 L4,29 L4,10 L4.0276506,10.0011955 C4.00930924,9.83646066 4,9.66937496 4,9.5 C4,4.90904715 10.8394525,2 19,2 C27.1605475,2 34,4.90904715 34,9.5 C34,9.66937496 33.9906908,9.83646066 33.9723494,10.0011955 L34,10 L33.999,16 L34,16 L33.999,16.042 L33.999,22.5 L34,22.5 L33.999,22.542 L34,29 L34,29 Z M19,23.5 C14.7666203,23.5 10.8887654,22.7171355 8.13683058,21.3227226 L8.13793103,22.5 C8.13793103,23.0026905 8.94866737,23.8179677 10.6896301,24.5584572 C12.8199264,25.4645432 15.796326,26 19,26 C22.203674,26 25.1800736,25.4645432 27.3103699,24.5584572 C28.9684296,23.8532291 29.7827466,23.0801664 29.8565408,22.5738975 L29.862069,22.5 L29.8631694,21.3227226 C27.1112346,22.7171355 23.2333797,23.5 19,23.5 Z M29.8631694,14.8227226 C27.1112346,16.2171355 23.2333797,17 19,17 C14.7666203,17 10.8887654,16.2171355 8.13683058,14.8227226 L8.13793103,16 C8.13793103,16.5026905 8.94866737,17.3179677 10.6896301,18.0584572 C12.8199264,18.9645432 15.796326,19.5 19,19.5 C22.203674,19.5 25.1800736,18.9645432 27.3103699,18.0584572 C28.9684296,17.3532291 29.7827466,16.5801664 29.8565408,16.0738975 L29.862069,16 Z M19,6 C15.796326,6 12.8199264,6.53545676 10.6896301,7.44154277 C8.94866737,8.18203227 8.13793103,8.99730949 8.13793103,9.5 C8.13793103,10.0026905 8.94866737,10.8179677 10.6896301,11.5584572 C12.8199264,12.4645432 15.796326,13 19,13 C22.203674,13 25.1800736,12.4645432 27.3103699,11.5584572 C29.0513326,10.8179677 29.862069,10.0026905 29.862069,9.5 C29.862069,8.99730949 29.0513326,8.18203227 27.3103699,7.44154277 C25.1800736,6.53545676 22.203674,6 19,6 Z M19,30 C14.7666203,30 10.8887654,29.2171355 8.13683058,27.8227226 L8.13793103,29 C8.13793103,29.5026905 8.94866737,30.3179677 10.6896301,31.0584572 C12.8199264,31.9645432 15.796326,32.5 19,32.5 C22.203674,32.5 25.1800736,31.9645432 27.3103699,31.0584572 C28.9684296,30.3532291 29.7827466,29.5801664 29.8565408,29.0738975 L29.862069,29 L29.8631694,27.8227226 C27.1112346,29.2171355 23.2333797,30 19,30 Z" id="Combined-Shape" fill="url(#linearGradient-1)"></path>
    </g>
</svg>