<?xml version="1.0" encoding="UTF-8"?>
<svg width="38px" height="38px" viewBox="0 0 38 38" version="1.1" xmlns="http://www.w3.org/2000/svg" xmlns:xlink="http://www.w3.org/1999/xlink">
    <title>menu-pages-highlighted</title>
    <defs>
        <linearGradient x1="50%" y1="0%" x2="50%" y2="100%" id="linearGradient-1">
            <stop stop-color="#30D5FF" offset="0%"></stop>
            <stop stop-color="#007CFF" offset="100%"></stop>
        </linearGradient>
    </defs>
    <g id="menu-pages-highlighted" stroke="none" stroke-width="1" fill="none" fill-rule="evenodd">
        <path d="M27,1 C30.8659932,1 34,4.13400675 34,8 L34,31 C34,34.8659932 30.8659932,38 27,38 L11,38 C7.13400675,38 4,34.8659932 4,31 L4,8 C4,4.13400675 7.13400675,1 11,1 L27,1 Z M23.243744,7.06410516 C22.934301,7.54361324 22.5037701,8.01396669 21.681998,8.01396669 L16.318002,8.01396669 C15.4962299,8.01396669 15.065699,7.54361324 14.756256,7.06410516 C14.4640043,6.61123642 13.8917963,5.17265557 13.1589109,5.014211 L13.0279346,5 L11,5 C9.40231912,5 8.09633912,6.24891996 8.00509269,7.82372721 L8,8 L8,31 C8,32.5976809 9.24891996,33.9036609 10.8237272,33.9949073 L11,34 L27,34 C28.5976809,34 29.9036609,32.75108 29.9949073,31.1762728 L30,31 L30,8 C30,6.40231912 28.75108,5.09633912 27.1762728,5.00509269 L27,5 L24.9720654,5 C24.1764909,5 23.553187,6.58459709 23.243744,7.06410516 Z M23,31 C23.5522847,31 24,31.4477153 24,32 C24,32.5522847 23.5522847,33 23,33 L15,33 C14.4477153,33 14,32.5522847 14,32 C14,31.4477153 14.4477153,31 15,31 L23,31 Z" id="Combined-Shape" fill="url(#linearGradient-1)"></path>
    </g>
</svg>