<?xml version="1.0" encoding="UTF-8"?>
<svg width="38px" height="38px" viewBox="0 0 38 38" version="1.1" xmlns="http://www.w3.org/2000/svg" xmlns:xlink="http://www.w3.org/1999/xlink">
    <title>menu-general</title>
    <defs>
        <linearGradient x1="50%" y1="0.505439385%" x2="50%" y2="100%" id="linearGradient-1">
            <stop stop-color="#D0DEEE" offset="0%"></stop>
            <stop stop-color="#8597B6" offset="100%"></stop>
        </linearGradient>
    </defs>
    <g id="menu-general" stroke="none" stroke-width="1" fill="none" fill-rule="evenodd">
        <path d="M17.5375972,35.6306657 L18.2532411,34.2616078 C18.5177182,34.2771653 18.7510804,34.3082803 19.0155575,34.3082803 C19.2489196,34.3082803 19.4978392,34.2771653 19.7623163,34.2616078 L20.4624028,35.6151083 C20.7268799,36.2374073 21.4114088,36.5796718 22.1426102,36.4707695 C22.7960242,36.3463096 23.3094209,35.801798 23.4027658,35.117269 L23.6205704,33.5770789 C24.1028522,33.4526191 24.5695765,33.2659293 25.0051858,33.0947971 L26.1408816,34.1060331 C26.6387208,34.5883148 27.3854797,34.6816597 28.0233362,34.3238377 C28.6145203,33.9660158 28.8789974,33.2970443 28.7545376,32.6280728 L28.4122731,31.1189976 C28.80121,30.8234056 29.1901469,30.4966986 29.5790838,30.1544341 L31.0103717,30.7611757 C31.6482282,31.0100953 32.3327571,30.8389631 32.7994814,30.2944514 C33.2039758,29.7966121 33.2817632,29.0809682 32.9239412,28.4742267 L32.099395,27.1362837 C32.3638721,26.7317893 32.5972342,26.3117375 32.8305964,25.8605707 L34.3707865,25.938358 C35.0553155,25.969473 35.7087295,25.5494211 35.9109767,24.8960071 C36.1443388,24.2581506 35.9109767,23.5269492 35.3975799,23.1224548 L34.1685393,22.1734488 C34.2774417,21.691167 34.386344,21.1933278 34.4485739,20.711046 L35.8954192,20.2132068 C36.5799481,20.0109596 37,19.4197755 37,18.7352465 C37,18.0507176 36.5799481,17.4595335 35.8954192,17.2572863 L34.4485739,16.7750045 C34.386344,16.2927228 34.2774417,15.810441 34.1685393,15.2970443 L35.3820225,14.3480383 C35.9109767,13.9591013 36.1443388,13.2279 35.9109767,12.6211584 C35.7087295,11.9366294 35.0553155,11.5165776 34.3707865,11.56325 L32.8305964,11.6099224 C32.5972342,11.1743131 32.3638721,10.7387038 32.099395,10.3186519 L32.9239412,9.0118239 C33.2662057,8.43619728 33.2039758,7.7049959 32.7994814,7.20715666 C32.3327571,6.64708752 31.6482282,6.47595528 30.9792567,6.7248749 L29.5479689,7.31605899 C29.1901469,6.98935199 28.80121,6.67820247 28.4122731,6.36705294 L28.7545376,4.84242027 C28.8789974,4.15789132 28.5989628,3.50447732 27.9922213,3.16221284 C27.3699222,2.81994836 26.6231634,2.89773575 26.1408816,3.36446003 L25.0051858,4.39125346 C24.5695765,4.20456375 24.0717373,4.04898899 23.6205704,3.89341422 L23.4027658,2.38433903 C23.3094209,1.69981008 22.7960242,1.13974093 22.0959378,1.01528112 C21.4114088,0.921936264 20.7579948,1.26420074 20.4935177,1.82426989 L19.7623163,3.20888527 C19.5859983,3.19851362 19.4165946,3.1950564 19.2541054,3.193904 L19.0155575,3.19332779 C18.7510804,3.19332779 18.5177182,3.19332779 18.2532411,3.20888527 L17.5375972,1.85538484 C17.2575627,1.26420074 16.5885912,0.921936264 15.8729473,1.0308386 C15.2039758,1.13974093 14.6905791,1.69981008 14.5972342,2.38433903 L14.394987,3.89341422 C13.9282627,4.04898899 13.445981,4.20456375 12.9948142,4.39125346 L11.8746759,3.38001751 C11.3923941,2.89773575 10.6456353,2.81994836 9.99222126,3.16221284 C9.41659464,3.50447732 9.12100259,4.15789132 9.26101988,4.85797775 L9.60328436,6.36705294 C9.19878997,6.67820247 8.80985307,6.98935199 8.43647364,7.31605899 L7.00518583,6.7248749 C6.35177182,6.47595528 5.68280035,6.64708752 5.20051858,7.20715666 C4.7960242,7.7049959 4.74935177,8.43619728 5.09161625,9.0118239 L5.91616249,10.3186519 C5.65168539,10.7387038 5.40276577,11.1743131 5.18496111,11.6099224 L3.62921348,11.56325 C2.94468453,11.5165776 2.306828,11.9366294 2.10458081,12.6056009 C1.87121867,13.2279 2.10458081,13.9591013 2.60242005,14.3480383 L3.84701815,15.3281593 C3.73811582,15.810441 3.61365601,16.2927228 3.56698358,16.7750045 L2.10458081,17.2572863 C1.42005186,17.4595335 1,18.0507176 1,18.7352465 C1,19.4197755 1.42005186,20.0109596 2.10458081,20.2132068 L3.56698358,20.711046 C3.61365601,21.1933278 3.73811582,21.691167 3.84701815,22.1734488 L2.633535,23.1224548 C2.10458081,23.5269492 1.87121867,24.2581506 2.10458081,24.8648922 C2.306828,25.5494211 2.94468453,25.969473 3.66032844,25.938358 L5.18496111,25.8605707 C5.40276577,26.3117375 5.65168539,26.7317893 5.91616249,27.1362837 L5.07605877,28.4897841 C4.7337943,29.0809682 4.7960242,29.7966121 5.20051858,30.2944514 C5.68280035,30.8389631 6.35177182,31.0100953 7.0207433,30.7456182 L8.42091616,30.1544341 C8.80985307,30.4966986 9.19878997,30.8234056 9.60328436,31.1189976 L9.26101988,32.6436303 C9.12100259,33.2970443 9.38547969,33.9660158 10.0233362,34.3393952 C10.6300778,34.6816597 11.3612792,34.5883148 11.8591184,34.137148 L12.9948142,33.0947971 C13.445981,33.2659293 13.9127053,33.4526191 14.394987,33.5770789 L14.5972342,35.117269 C14.6905791,35.801798 15.2039758,36.3463096 15.9040622,36.4863269 C16.5885912,36.5796718 17.2575627,36.2374073 17.5375972,35.6306657 Z M29.454624,16.5571999 L23.5583405,16.5571999 C22.6404494,14.4413831 20.66465,13.3523598 18.6888505,13.3523598 C18.5177182,13.3523598 18.315471,13.3523598 18.019879,13.4145897 L15.1573034,8.45175476 C16.3396716,8.00058795 17.6309421,7.75166833 19,7.75166833 C24.2895419,7.75166833 28.505618,11.5321351 29.454624,16.5571999 Z M11.5168539,26.654002 C9.52549697,24.662645 8.32757131,21.8622993 8.32757131,18.7352465 C8.32757131,15.5615214 9.58772688,12.6989458 11.6568712,10.6920313 L14.4727744,15.5770789 C13.7571305,16.5883148 13.4304235,17.7084531 13.4304235,18.7352465 C13.4304235,19.730925 13.7104581,20.6954886 14.4727744,21.7533969 L11.5168539,26.654002 Z M18.6888505,20.4621264 C17.7709594,20.4621264 16.9619706,19.6842526 16.9619706,18.7352465 C16.9619706,17.7862405 17.7398444,17.0239242 18.6888505,17.0239242 C19.622299,17.0239242 20.3846154,17.7862405 20.3846154,18.7352465 C20.3846154,19.6842526 19.622299,20.4621264 18.6888505,20.4621264 Z M19,29.7343822 C17.5531547,29.7343822 16.1996543,29.4543477 14.9550562,28.940951 L17.9420916,24.0247885 C18.2532411,24.0870184 18.4866033,24.0870184 18.6888505,24.0870184 C20.66465,24.0870184 22.6093345,22.997995 23.5427831,20.8355058 L29.4701815,20.8355058 C28.5522904,25.9228006 24.3206569,29.7343822 19,29.7343822 Z" id="shape" fill="url(#linearGradient-1)"></path>
    </g>
</svg>