<svg width="60" height="60" fill="none" xmlns="http://www.w3.org/2000/svg"><rect width="60" height="60" rx="19" fill="url(#paint0_radial)"/><path fill-rule="evenodd" clip-rule="evenodd" d="M42.4749 18.3289c.1174.2031.1173.4534-.0004.6564l-3.1622 5.4635C44.7422 27.395 48.4561 32.8787 49 39.3577H11c.5433-6.479 4.2575-11.9627 9.6877-14.9089l-3.1625-5.4644c-.1175-.2031-.1175-.4533 0-.6563.1176-.2031.3348-.3281.5699-.3281.235 0 .4522.1251.5697.3282l3.2019 5.5325c2.4487-1.1139 5.1986-1.7356 8.133-1.7356 2.9344 0 5.6846.6208 8.1333 1.7356l3.2022-5.5325c.1176-.203.3349-.328.57-.3278.2351.0001.4523.1253.5697.3285zm-24.599 13.9564c-.0004-1.9471 1.5777-3.5258 3.5248-3.5262 1.9471-.0003 3.5259 1.5778 3.5262 3.5249-.0018 1.9462-1.5786 3.5237-3.5248 3.5262-1.9471.0004-3.5259-1.5778-3.5262-3.5249zm17.4744 0c-.0003-1.9471 1.5778-3.5258 3.5249-3.5262 1.9471-.0003 3.5259 1.5778 3.5262 3.5249-.0022 1.9461-1.5788 3.5233-3.5248 3.5262-1.9472.0004-3.5259-1.5778-3.5263-3.5249z" fill="#fff"/><path d="M42.4745 18.9853l-.8652-.5015-.0002.0005.8654.501zm.0004-.6564l.8658-.5004v-.0001l-.8658.5005zm-3.1626 6.1199l-.8655-.501c-.1352.2337-.1703.5121-.0971.772s.2484.4792.4857.6079l.4769-.8789zM49 39.3577v1c.2798 0 .5467-.1172.7361-.3232.1894-.2059.2838-.4817.2604-.7605L49 39.3577zm-38 0l-.9965-.0836c-.02338.2788.0711.5546.2604.7605.1894.2059.4564.3231.7361.3231v-1zm9.6877-14.9089l.4769.8789c.2373-.1287.4125-.348.4857-.6078.0732-.2599.0381-.5384-.0971-.772l-.8655.5009zm-3.1625-5.4644l-.8656.5008.0001.0001.8655-.5009zm0-.6563l.8655.501-.8655-.501zM18.0951 18l.0001-1-.0001 1zm.5697.3282l-.8655.5008v.0001l.8655-.5009zm3.2019 5.5325l-.8655.5009c.2577.4453.8113.6224 1.2796.4094l-.4141-.9103zm16.2663 0l-.4144.9101c.4684.2133 1.0221.0362 1.2799-.4091l-.8655-.501zm3.2022-5.5325l-.8652-.5014-.0003.0005.8655.5009zm.57-.3278l-.0005 1 .0005-1zM17.8759 32.2853l-1 .0002 1-.0002zm7.051-.0013l1 .0009v-.0011l-1 .0002zm-3.5248 3.5262l.0002 1h.0011l-.0013-1zm20.9993-3.5262l1 .0011v-.0013l-1 .0002zm-3.5248 3.5262l.0001 1h.0014l-.0015-1zm4.4631-16.3235c.2972-.5128.2976-1.1451.001-1.6582l-1.7316 1.0008c-.0617-.1068-.0616-.2387.0002-.3455l1.7304 1.0029zm-3.1619 5.463l3.1622-5.4635-1.7309-1.0019-3.1623 5.4635 1.731 1.0019zm9.8187 14.3243c-.5724-6.8187-4.4849-12.5993-10.2073-15.7042l-.9538 1.7579c5.1374 2.7875 8.6527 7.9744 9.1681 14.1136l1.993-.1673zM11 40.3577h38v-2H11v2zm9.2108-16.7879c-5.7227 3.1049-9.6355 8.8855-10.2073 15.7043l1.993.1671c.5148-6.1391 4.0303-11.3259 9.1681-14.1135l-.9538-1.7579zm-3.5511-4.0845l3.1625 5.4644 1.731-1.0018-3.1625-5.4644-1.731 1.0018zm.0001-1.6583c-.2969.5129-.297 1.1452-.0002 1.6582l1.7311-1.0016c.0618.1068.0618.2387 0 .3455l-1.7309-1.0021zM18.0952 17c-.5911-.0001-1.1386.3144-1.4354.827l1.7309 1.0021c-.0617.1065-.1747.1709-.2957.1709l.0002-2zm1.4352.8274c-.2967-.5127-.8441-.8273-1.4352-.8274l-.0002 2c-.121 0-.2341-.0644-.2957-.171l1.7311-1.0016zm3.2018 5.5324l-3.2019-5.5325-1.731 1.0018 3.2019 5.5325 1.731-1.0018zm7.2675-2.2347c-3.0771 0-5.9681.6522-8.5471 1.8254l.8282 1.8205c2.3185-1.0547 4.9271-1.6459 7.7189-1.6459v-2zm8.5476 1.8255c-2.5793-1.1743-5.4708-1.8255-8.5476-1.8255v2c2.792 0 5.4008.5904 7.7189 1.6457l.8287-1.8202zm1.9224-5.1233l-3.2022 5.5325 1.731 1.0019 3.2022-5.5325-1.731-1.0019zm1.4361-.8269c-.5911-.0004-1.1388.3139-1.4358.8264l1.7304 1.0029c-.0617.1064-.1748.1707-.2957.1707l.0011-2zm1.4349.828c-.2964-.5128-.8437-.8277-1.4349-.828l-.0011 2c-.121-.0001-.234-.0646-.2956-.1711l1.7316-1.0009zm-21.9402 9.9307c-2.4993.0005-4.5251 2.027-4.5246 4.5264l2-.0004c-.0003-1.3948 1.1302-2.5257 2.525-2.526l-.0004-2zm4.5264 4.5247c-.0004-2.4994-2.027-4.5251-4.5264-4.5247l.0004 2c1.3948-.0002 2.5258 1.1303 2.526 2.5251l2-.0004zm-4.5235 4.5264c2.4976-.0033 4.5212-2.0277 4.5235-4.5253l-2-.0018c-.0013 1.3948-1.1314 2.5253-2.5262 2.5271l.0027 2zm-4.5275-4.5247c.0004 2.4994 2.027 4.5252 4.5264 4.5247l-.0004-2c-1.3948.0003-2.5258-1.1302-2.526-2.5251l-2 .0004zm21.9991-4.5264c-2.4994.0005-4.5251 2.027-4.5247 4.5264l2-.0004c-.0002-1.3948 1.1303-2.5257 2.5251-2.526l-.0004-2zm4.5264 4.5247c-.0004-2.4994-2.027-4.5251-4.5264-4.5247l.0004 2c1.3948-.0002 2.5258 1.1303 2.526 2.5251l2-.0004zm-4.5233 4.5264c2.4973-.0037 4.5205-2.0278 4.5233-4.5251l-2-.0022c-.0015 1.3948-1.1316 2.5252-2.5263 2.5273l.003 2zm-4.5278-4.5247c.0005 2.4994 2.0271 4.5252 4.5264 4.5247l-.0003-2c-1.3949.0003-2.5258-1.1302-2.5261-2.5251l-2 .0004z" fill="#fff"/><defs><radialGradient id="paint0_radial" cx="0" cy="0" r="1" gradientUnits="userSpaceOnUse" gradientTransform="matrix(0 58.0449 -86.5834 0 30 0)"><stop stop-color="#5EFFA6"/><stop offset="1" stop-color="#01A94C"/></radialGradient></defs></svg>