<svg width="60" height="60" fill="none" xmlns="http://www.w3.org/2000/svg"><rect width="60" height="60" rx="19" fill="url(#paint0_radial)"/><path fill-rule="evenodd" clip-rule="evenodd" d="M35.1956 15.5977c1.2747-1.5128 1.9142-3.1471 1.9142-4.8975 0-.2322-.0108-.4662-.0367-.7002-.888.0461-1.8321.3151-2.8302.8015-1.0003.4938-1.8251 1.1129-2.4737 1.8573-1.2991 1.4704-2.0306 3.2688-2.0306 4.9491 0 .2323.0149.4533.0406.6633 2.0177.164 3.8782-.8752 5.4164-2.6735zm6.786 25.0612c.7259-1.0349 1.3524-2.1605 1.8817-3.3833.2182-.5185.4235-1.0586.6179-1.6225-.8966-.3759-1.7024-.9052-2.424-1.59-1.5922-1.4756-2.4024-3.334-2.4262-5.5672-.0259-2.8671 1.2769-5.1021 3.9104-6.6978-1.4712-2.0913-3.6835-3.2521-6.6282-3.4897-1.0867-.0923-2.4132.1419-3.9849.7075-1.662.6099-2.6424.9158-2.9317.9158-.3869 0-1.2695-.2616-2.6439-.7775-1.3784-.5142-2.4875-.7758-3.3333-.7758-1.5458.0257-2.9812.4275-4.3097 1.2161-1.3284.7885-2.3898 1.8627-3.1877 3.2244C15.5068 24.5142 15 26.5372 15 28.8828c0 2.0476.3759 4.1627 1.1258 6.3469.7002 2.0222 1.594 3.7959 2.6811 5.3255 1.0132 1.4323 1.859 2.4434 2.5353 3.0332 1.0594.9852 2.1208 1.454 3.1857 1.4086.7002-.0238 1.616-.2636 2.7528-.7238 1.1351-.458 2.1963-.6848 3.1858-.6848.9435 0 1.9753.2268 3.0981.6848 1.1191.4602 2.0805.6871 2.8777.6871 1.1104-.026 2.1474-.4818 3.1153-1.3719.6244-.5423 1.4345-1.5188 2.424-2.9295z" fill="#fff"/><defs><radialGradient id="paint0_radial" cx="0" cy="0" r="1" gradientUnits="userSpaceOnUse" gradientTransform="matrix(0 60 -89.4998 0 30 0)"><stop stop-color="#9697A0"/><stop offset="1" stop-color="#3D3741"/></radialGradient></defs></svg>