<?xml version="1.0" encoding="UTF-8"?>
<svg width="19px" height="18px" viewBox="0 0 19 18" version="1.1" xmlns="http://www.w3.org/2000/svg" xmlns:xlink="http://www.w3.org/1999/xlink">
    <title>btn-back-highlighted</title>
    <defs>
        <linearGradient x1="50%" y1="0%" x2="50%" y2="100%" id="linearGradient-1">
            <stop stop-color="#00B2FF" offset="0%"></stop>
            <stop stop-color="#007AFF" offset="100%"></stop>
        </linearGradient>
    </defs>
    <g id="btn-back-highlighted" stroke="none" stroke-width="1" fill="none" fill-rule="evenodd">
        <path d="M18.826694,9.06903139 C18.8128293,9.30493605 18.7157759,9.5368648 18.5355339,9.71710678 L18.5355339,9.71710678 L10.8786797,17.373961 C10.4881554,17.7644853 9.85499039,17.7644853 9.46446609,17.373961 C9.0739418,16.9834367 9.0739418,16.3502718 9.46446609,15.9597475 L9.46446609,15.9597475 L15.425,9.998 L1,9.99842712 C0.44771525,9.99842712 -1.75791692e-13,9.55071187 -1.75859327e-13,8.99842712 C-1.75926962e-13,8.44614237 0.44771525,7.99842712 1,7.99842712 L15.446,7.998 L9.46446609,2.01710678 C9.0739418,1.62658249 9.0739418,0.993417511 9.46446609,0.602893219 C9.85499039,0.212368927 10.4881554,0.212368927 10.8786797,0.602893219 L18.5355339,8.25974747 C18.7157759,8.43998945 18.8128293,8.6719182 18.826694,8.90782286 Z" id="Combined-Shape" fill="url(#linearGradient-1)" transform="translate(9.413347, 8.988427) scale(-1, 1) translate(-9.413347, -8.988427) "></path>
    </g>
</svg>