<?xml version="1.0" encoding="UTF-8"?>
<svg width="38px" height="38px" viewBox="0 0 38 38" version="1.1" xmlns="http://www.w3.org/2000/svg" xmlns:xlink="http://www.w3.org/1999/xlink">
    <title>action-remove-highlighted</title>
    <defs>
        <linearGradient x1="50%" y1="0%" x2="50%" y2="100%" id="linearGradient-1">
            <stop stop-color="#FF93B6" offset="0%"></stop>
            <stop stop-color="#F03838" offset="100%"></stop>
        </linearGradient>
    </defs>
    <g id="action-remove-highlighted" stroke="none" stroke-width="1" fill="none" fill-rule="evenodd">
        <path d="M12.5,26.5 C12.5,27.875 13.625,29 15,29 L22.5,29 C23.875,29 25,27.875 25,26.5 L26.25,14 L11.25,14 L12.5,26.5 Z M15.298166,17.7642699 C15.6420304,17.7341856 15.9451757,17.9885548 15.97526,18.3324192 L16.5199834,24.5586361 C16.5500676,24.9025006 16.2956985,25.2056459 15.951834,25.2357301 C15.6079696,25.2658144 15.3048243,25.0114452 15.27474,24.6675808 L14.7300166,18.4413639 C14.6999324,18.0974994 14.9543015,17.7943541 15.298166,17.7642699 Z M18.75,17.75 C19.095178,17.75 19.375,18.029822 19.375,18.375 L19.375,24.625 C19.375,24.970178 19.095178,25.25 18.75,25.25 C18.404822,25.25 18.125,24.970178 18.125,24.625 L18.125,18.375 C18.125,18.029822 18.404822,17.75 18.75,17.75 Z M22.201834,17.7642699 C22.5456985,17.7943541 22.8000676,18.0974994 22.7699834,18.4413639 L22.22526,24.6675808 C22.1951757,25.0114452 21.8920304,25.2658144 21.548166,25.2357301 C21.2043015,25.2056459 20.9499324,24.9025006 20.9800166,24.5586361 L21.52474,18.3324192 C21.5548243,17.9885548 21.8579696,17.7341856 22.201834,17.7642699 Z M26.25,10.25 L23.9534271,10.25 C23.4229941,10.25 22.9142863,10.0392863 22.5392136,9.66421356 L22.4607864,9.58578644 C22.0857137,9.21071368 21.5770059,9 21.0465729,9 L16.4534271,9 C15.9229941,9 15.4142863,9.21071368 15.0392136,9.58578644 L14.9607864,9.66421356 C14.5857137,10.0392863 14.0770059,10.25 13.5465729,10.25 L11.25,10.25 C10.5596441,10.25 10,10.8096441 10,11.5 C10,12.1903559 10.5596441,12.75 11.25,12.75 L26.25,12.75 C26.9403559,12.75 27.5,12.1903559 27.5,11.5 C27.5,10.8096441 26.9403559,10.25 26.25,10.25 Z" id="Shape" fill="url(#linearGradient-1)" fill-rule="nonzero"></path>
    </g>
</svg>
