<?xml version="1.0" encoding="UTF-8"?>
<svg width="20px" height="16px" viewBox="0 0 20 16" version="1.1" xmlns="http://www.w3.org/2000/svg" xmlns:xlink="http://www.w3.org/1999/xlink">
    <title>btn-navigate-highlighted</title>
    <defs>
        <linearGradient x1="50%" y1="0%" x2="50%" y2="100%" id="linearGradient-1">
            <stop stop-color="#00B2FF" offset="0%"></stop>
            <stop stop-color="#007AFF" offset="100%"></stop>
        </linearGradient>
    </defs>
    <g id="btn-navigate-highlighted" stroke="none" stroke-width="1" fill="none" fill-rule="evenodd">
        <path d="M19,0 C19.5522847,-1.01453063e-16 20,0.44771525 20,1 L20,15 C20,15.5522847 19.5522847,16 19,16 C18.4477153,16 18,15.5522847 18,15 L18,1 C18,0.44771525 18.4477153,1.01453063e-16 19,0 Z M8.87867966,1.60446609 L14.5355339,7.26132034 C14.7157759,7.44156232 14.8128293,7.67349108 14.826694,7.90939574 L14.826694,8.07060426 C14.8151401,8.26719148 14.7458162,8.46101765 14.6187225,8.62447232 L14.5355339,8.71867966 L8.87867966,14.3755339 C8.48815536,14.7660582 7.85499039,14.7660582 7.46446609,14.3755339 C7.10398213,14.0150499 7.0762526,13.4478189 7.38127749,13.0555277 L7.46446609,12.9613203 L11.425,8.99957288 L1,9 C0.44771525,9 1.10496159e-12,8.55228475 1.10489395e-12,8 C1.10482632e-12,7.44771525 0.44771525,7 1,7 L11.446,6.99957288 L7.46446609,3.01867966 C7.0739418,2.62815536 7.0739418,1.99499039 7.46446609,1.60446609 C7.85499039,1.2139418 8.48815536,1.2139418 8.87867966,1.60446609 Z" id="Combined-Shape" fill="url(#linearGradient-1)"></path>
    </g>
</svg>