<?xml version="1.0" encoding="UTF-8"?>
<svg width="15px" height="15px" viewBox="0 0 15 15" version="1.1" xmlns="http://www.w3.org/2000/svg" xmlns:xlink="http://www.w3.org/1999/xlink">
    <title>btn-plus</title>
    <g id="Page-1" stroke="none" stroke-width="1" fill="none" fill-rule="evenodd">
        <g id="General---Tab-Bar" transform="translate(-1269.000000, -793.000000)" fill="#FFFFFF">
            <g id="Group-20-Copy" transform="translate(1236.000000, 0.000000)">
                <g id="Group-13" transform="translate(20.000000, 150.000000)">
                    <g id="Group-3" transform="translate(0.000000, 478.000000)">
                        <g id="Group-4-Copy-12" transform="translate(0.000000, 155.000000)">
                            <g id="Group-23" transform="translate(13.000000, 10.000000)">
                                <path d="M7.5,0 C8.32842712,-1.52179594e-16 9,0.671572875 9,1.5 L9,6 L13.5,6 C14.3284271,6 15,6.67157288 15,7.5 C15,8.32842712 14.3284271,9 13.5,9 L9,9 L9,13.5 C9,14.3284271 8.32842712,15 7.5,15 C6.67157288,15 6,14.3284271 6,13.5 L6,9 L1.5,9 C0.671572875,9 1.01453063e-16,8.32842712 0,7.5 C-1.01453063e-16,6.67157288 0.671572875,6 1.5,6 L6,6 L6,1.5 C6,0.671572875 6.67157288,1.52179594e-16 7.5,0 Z" id="btn-plus"></path>
                            </g>
                        </g>
                    </g>
                </g>
            </g>
        </g>
    </g>
</svg>