<?xml version="1.0" encoding="UTF-8"?>
<svg width="24px" height="24px" viewBox="0 0 24 24" version="1.1" xmlns="http://www.w3.org/2000/svg" xmlns:xlink="http://www.w3.org/1999/xlink">
    <title>btn-http-method-highlighted</title>
    <defs>
        <linearGradient x1="50%" y1="0%" x2="50%" y2="100%" id="linearGradient-1">
            <stop stop-color="#00B2FF" offset="0%"></stop>
            <stop stop-color="#007AFF" offset="100%"></stop>
        </linearGradient>
    </defs>
    <g id="btn-http-method-highlighted" stroke="none" stroke-width="1" fill="none" fill-rule="evenodd">
        <path d="M12.9148963,0.95491309 L12.9300251,1.07380862 L13.2236988,4.11820312 C13.6407655,4.18325279 14.0581228,4.28224505 14.4724543,4.41686954 C14.9123292,4.55979354 15.3313568,4.73721299 15.7275155,4.94515986 L17.7507873,2.76398039 C18.4977646,1.88773841 19.8179871,2.7523394 19.4658289,3.72624055 L19.421596,3.83093102 L19.3639504,3.93601203 L17.7365266,6.44664222 C18.3052103,7.0323843 18.7785928,7.69986715 19.1430693,8.42239006 L21.9068069,7.81335062 C23.0299142,7.54261473 23.5897921,9.02890247 22.720043,9.60571647 L22.6249337,9.6620333 L22.5229804,9.70973764 L19.9073663,10.7980714 C20.0339696,11.6094974 20.0364762,12.4487616 19.9010827,13.2887733 L22.3682384,14.3457661 C23.4269932,14.783167 23.0222987,16.2926823 21.9988457,16.2746211 L21.8780571,16.2656101 L21.7520649,16.2421531 L19.1343221,15.6480829 C18.7580413,16.3913305 18.2752394,17.0562865 17.7113453,17.6299943 L19.3486408,20.223355 C19.9531852,21.2078315 18.7126533,22.1995951 17.8953033,21.5506599 L17.8123525,21.4776085 L17.7354776,21.3953866 L15.6862854,19.1255801 C14.9623448,19.5013568 14.1814471,19.7670273 13.370932,19.9086612 L13.2335049,22.3043922 L13.2335049,22.3043922 L13.1870794,23.0188003 C13.0978042,24.1667571 11.521522,24.2432876 11.2339792,23.2483916 L11.2082289,23.1376958 L10.838043,19.9417284 C10.4006451,19.8769749 9.96274957,19.7749732 9.52818243,19.6337738 C9.07901913,19.4878318 8.65159272,19.3059221 8.24805581,19.0922696 L6.10354352,21.3651031 C5.35656626,22.2413451 4.03634369,21.3767441 4.38850186,20.4028429 L4.43273481,20.2981525 L4.49038037,20.1930715 L6.23558758,17.5744713 C5.70131055,17.018472 5.25230989,16.3899046 4.90005992,15.7112887 L2.16890872,16.3947455 C1.04580145,16.6654814 0.485923583,15.1791936 1.35567264,14.6023796 L1.45078195,14.5460628 L1.55273523,14.4983585 L4.10868739,13.3476113 C3.96713156,12.5071092 3.95887405,11.6354315 4.09938252,10.7629349 L1.63239838,9.70487721 C0.573643568,9.26747637 0.978338055,7.75796101 2.00179102,7.77602219 L2.12257965,7.78503327 L2.24857187,7.80849019 L4.86582755,8.4035228 C5.24479859,7.65471015 5.73188349,6.9853457 6.30108475,6.40867585 L4.8016665,4.00897745 C4.19712213,3.02450095 5.437654,2.03273728 6.25500396,2.68167246 L6.33795483,2.75472393 L6.41482966,2.83694581 L8.30933478,4.92766941 C9.05823916,4.53826685 9.86820861,4.26674637 10.7089432,4.12854657 L10.9360458,1.07380862 C11.0285094,-0.115146714 12.7160915,-0.154778559 12.9148963,0.95491309 Z M13.8544203,6.31898257 L13.6392125,6.25340875 L13.6392125,6.25340875 L13.423464,6.1962605 L13.0645011,6.11972403 L13.0645011,6.11972403 L12.7625531,6.07284245 L12.7625531,6.07284245 L12.4609585,6.0416448 C12.3656925,6.03423264 12.2705598,6.02913636 12.1756312,6.02631987 L12.4415607,6.04016741 L12.259344,6.02939324 L12.259344,6.02939324 L11.9605754,6.02382656 L11.9605754,6.02382656 L11.8438984,6.02572524 C11.6971097,6.0295534 11.5510152,6.03879718 11.4058815,6.05332076 L11.1889348,6.07904899 C10.9858604,6.10690802 10.7849587,6.145117 10.5869757,6.19329583 C10.2840626,6.266983 9.98752561,6.36419727 9.70052507,6.48345507 L9.38890347,6.62341362 L9.38890347,6.62341362 L9.16393346,6.73807088 C8.97492733,6.83943259 8.79128302,6.95088675 8.61388405,7.0719832 L8.35258003,7.26080331 L8.30041949,7.301119 C8.2192308,7.36458505 8.13959597,7.43019967 8.061612,7.49791347 L7.85781462,7.68325457 C7.70497287,7.82881477 7.55934963,7.98291615 7.42176659,8.14514005 C7.25212262,8.34519865 7.09496403,8.55720825 6.95152159,8.78074386 L6.79190869,9.04422464 L6.66851257,9.27163222 L6.66851257,9.27163222 L6.54567045,9.52460952 L6.54567045,9.52460952 L6.43714306,9.77720709 L6.43714306,9.77720709 L6.40514071,9.85831161 C6.36548516,9.96096879 6.32839851,10.0652882 6.29397928,10.1712197 L6.20798717,10.4599046 L6.20798717,10.4599046 L6.14450372,10.7160087 L6.09653389,10.9511968 L6.09653389,10.9511968 C6.0712817,11.0890088 6.05101405,11.2268388 6.03561891,11.3644946 C5.99287126,11.7467229 5.98769089,12.1276069 6.01775883,12.5025955 L6.05517216,12.8448745 L6.05517216,12.8448745 L6.10170124,13.129832 L6.10170124,13.129832 L6.17861189,13.4804183 L6.17861189,13.4804183 L6.2405991,13.7083461 C6.3021479,13.9182799 6.37503225,14.1244414 6.45877898,14.3259022 L6.62171402,14.6843907 L6.62171402,14.6843907 L6.59248671,14.6244518 C6.68243722,14.8115365 6.7820169,14.9939405 6.8908176,15.1708628 C7.04311675,15.4184483 7.21298064,15.6547013 7.39969923,15.8780933 L7.59653064,16.1020318 L7.59653064,16.1020318 L7.7859958,16.2979317 L7.95152454,16.4553207 L7.95152454,16.4553207 L8.06165869,16.5536241 L8.18518887,16.6582537 L8.18518887,16.6582537 L8.31183383,16.7597368 L8.43218938,16.8510857 L8.43218938,16.8510857 L8.5157996,16.911774 C8.60201003,16.9732144 8.69011903,17.0325398 8.78007625,17.0896515 L8.55516259,16.9395876 L8.7115155,17.0454622 L8.7115155,17.0454622 L8.87179399,17.1467207 L9.10928354,17.2841296 L9.26448848,17.366286 L9.26448848,17.366286 L9.42281011,17.444221 C9.65449922,17.5540668 9.89585556,17.6503136 10.1462164,17.7316608 C10.4110338,17.8177052 10.6774992,17.8843416 10.9440733,17.9323545 L11.2141953,17.9746684 L11.2141953,17.9746684 L11.5868047,18.0124772 L11.7987812,18.0234876 L12.0239154,18.0268996 L12.0239154,18.0268996 L12.1983436,18.0236875 L12.3951956,18.0139137 L12.5660333,18.0001266 L12.5660333,18.0001266 L12.7363685,17.9814414 L13.0040874,17.9420025 C13.119745,17.9222745 13.2343143,17.8992489 13.347955,17.8729458 L13.5520851,17.8219122 C13.7221481,17.7762152 13.889896,17.7231229 14.0548459,17.6628815 L14.2855933,17.5731989 L14.5584118,17.452694 L14.5584118,17.452694 L14.8248713,17.3189009 C15.0144583,17.2177696 15.1986817,17.1064982 15.3766529,16.9855395 L15.6388096,16.7968925 L15.7135233,16.7390927 C15.7901111,16.6788754 15.8653055,16.6167406 15.9390248,16.5527299 L16.1598388,16.3511189 C16.3084101,16.208507 16.4500834,16.0577823 16.5840957,15.8993334 C16.7951788,15.6497369 16.9871772,15.3811177 17.1571902,15.0949032 L17.3196516,14.803099 L17.4561712,14.5233951 L17.4561712,14.5233951 L17.564518,14.2708923 L17.564518,14.2708923 L17.6065934,14.1633839 C17.6420895,14.070079 17.6754686,13.9754132 17.7066575,13.8794236 L17.800698,13.5607514 L17.800698,13.5607514 L17.8331972,13.4328117 L17.8331972,13.4328117 L17.8831412,13.208176 L17.8831412,13.208176 L17.9015329,13.113379 L17.9015329,13.113379 L17.9540181,12.7780469 C17.9672321,12.6744596 17.9776761,12.5709442 17.985396,12.4675911 L17.9919958,12.3680114 C18.0044637,12.1525483 18.0051313,11.9379188 17.9944174,11.7249454 L17.9866112,11.5971522 C17.9724419,11.4000125 17.9485289,11.2044432 17.9152078,11.0111028 C17.894347,10.8900616 17.8697988,10.769894 17.8416455,10.6507617 L17.8982633,10.917259 L17.8672819,10.7641416 L17.8672819,10.7641416 L17.8416455,10.6507617 C17.817006,10.546498 17.7896051,10.4430272 17.759498,10.3404577 L17.832371,10.6120892 L17.7931736,10.4597198 L17.7931736,10.4597198 L17.6987487,10.1457695 L17.6987487,10.1457695 L17.6611381,10.035631 C17.5920439,9.83951176 17.5128863,9.64722504 17.4240738,9.45957212 L17.2915874,9.1964421 C17.2326628,9.08619422 17.1703074,8.97776395 17.1046105,8.87132626 L17.0324755,8.75733034 C16.9432716,8.6197893 16.8483871,8.48577633 16.7480222,8.35568485 L16.6107221,8.18428667 L16.4149169,7.96034238 L16.4149169,7.96034238 L16.1509527,7.69072271 L16.1509527,7.69072271 L16.2076532,7.74581972 C16.1078313,7.64752882 16.0043177,7.55251436 15.897234,7.46101517 L15.6668556,7.27388762 C15.5865379,7.211905 15.5044289,7.15181526 15.4205736,7.09370641 C15.3471302,7.0428188 15.2726329,6.99363013 15.1968359,6.94600797 L15.4205736,7.09370641 L15.2862567,7.00330807 L15.2862567,7.00330807 L15.0200517,6.83916529 L15.0200517,6.83916529 L14.9094542,6.77647926 L14.6447694,6.63866962 L14.5394279,6.58838298 C14.319504,6.48601192 14.0909818,6.39584604 13.8544203,6.31898257 Z M12.6183524,10.1232086 C13.6688604,10.4645394 14.2437622,11.5928476 13.9024314,12.6433557 C13.5611007,13.6938637 12.4327924,14.2687654 11.3822844,13.9274347 C10.3317764,13.586104 9.7568746,12.4577957 10.0982053,11.4072877 C10.4395361,10.3567797 11.5678443,9.78187789 12.6183524,10.1232086 Z" id="Shape" fill="url(#linearGradient-1)"></path>
    </g>
</svg>