<?xml version="1.0" encoding="UTF-8"?>
<svg width="38px" height="38px" viewBox="0 0 38 38" version="1.1" xmlns="http://www.w3.org/2000/svg" xmlns:xlink="http://www.w3.org/1999/xlink">
    <title>action-back-highlighted</title>
    <defs>
        <linearGradient x1="50%" y1="0%" x2="50%" y2="100%" id="linearGradient-1">
            <stop stop-color="#00B2FF" offset="0%"></stop>
            <stop stop-color="#007AFF" offset="100%"></stop>
        </linearGradient>
    </defs>
    <g id="action-back-highlighted" stroke="none" stroke-width="1" fill="none" fill-rule="evenodd">
        <path d="M18.6102716,11.0077667 C19.0026176,10.7046987 19.5681687,10.7332935 19.9277685,11.0928932 L19.9277685,11.0928932 L19.930218,11.0953427 L20.0131179,11.1892243 C20.3170794,11.5801632 20.2893591,12.145516 19.9289943,12.5058788 C19.9285861,12.5062857 19.9281775,12.5066922 19.9277685,12.5070983 L19.9277685,12.5070983 L14.397,17.999 L26.1796045,17.9996787 C26.7318893,17.9996787 27.1796045,18.4473939 27.1796045,18.9996787 C27.1796045,19.5519634 26.7318893,19.9996787 26.1796045,19.9996787 L14.453,19.999 L19.9292632,25.4602598 L19.9292632,25.4602598 C20.320215,25.8512103 20.320215,26.4835203 19.930218,26.8735173 L19.930218,26.8735173 C19.539112,27.2646233 18.9066837,27.2650506 18.5160057,26.8754268 L18.5160057,26.8754268 L11.3035945,19.684315 L11.3035945,19.684315 L11.2924984,19.6733213 L11.2095933,19.579416 C11.1082517,19.4490083 11.0436797,19.298842 11.0155768,19.1414524 C10.9601926,18.8308669 11.0524996,18.4991052 11.2924977,18.2591071 L11.2924977,18.2591071 L11.3152468,18.2369978 L11.3152468,18.2369978 L11.3375158,18.216636 L18.5160129,11.0904437 Z" id="Combined-Shape" fill="url(#linearGradient-1)" fill-rule="nonzero"></path>
    </g>
</svg>