<?xml version="1.0" encoding="UTF-8"?>
<svg width="22px" height="16px" viewBox="0 0 22 16" version="1.1" xmlns="http://www.w3.org/2000/svg" xmlns:xlink="http://www.w3.org/1999/xlink">
    <title>btn-data copy</title>
    <defs>
        <linearGradient x1="50%" y1="0%" x2="50%" y2="100%" id="linearGradient-1">
            <stop stop-color="#00B2FF" offset="0%"></stop>
            <stop stop-color="#007AFF" offset="100%"></stop>
        </linearGradient>
    </defs>
    <g id="btn-data-copy" stroke="none" stroke-width="1" fill="none" fill-rule="evenodd">
        <path d="M13.7498626,4.94337019 C13.8682093,4.94337019 13.9673494,5.0256036 13.9932599,5.13604748 L13.9998626,5.19337019 L13.9998626,6.61483121 C13.9998626,6.73317794 13.9176292,6.83231803 13.8071853,6.85822853 L13.7498626,6.86483121 L10.353325,6.86483121 C8.33723063,6.86483121 6.69701694,8.50013736 6.69701694,10.5094449 C6.69701694,12.384114 8.12888195,13.943682 9.96733391,14.1340151 L10.1589269,14.1487772 L10.353325,14.1537742 L16.2360752,14.1537742 C18.2521008,14.1537742 19.8923833,12.5185367 19.8923833,10.5094449 C19.8923833,9.6485944 19.5898098,8.83408551 19.0536359,8.19010238 L18.9016668,8.01879183 L18.7451668,7.86220108 L18.6719947,7.68547564 L18.6719947,5.9199263 C18.6719947,5.72692568 18.8814016,5.60671481 19.0480652,5.70404151 C20.7487247,6.69717719 21.818182,8.51277941 21.818182,10.5094449 C21.818182,13.4188973 19.5636037,15.8265571 16.6833563,16.057313 L16.4605922,16.0707415 L16.2360752,16.0752352 L10.353325,16.0752352 C7.27525256,16.0752352 4.77121829,13.5788496 4.77121829,10.5094449 C4.77121829,7.59988677 7.02581216,5.19206584 9.90604481,4.96129372 L10.1288077,4.94786424 L10.353325,4.94337019 L13.7498626,4.94337019 Z M11.964857,0.5 C15.0429448,0.5 17.5469637,2.99640101 17.5469637,6.06588514 C17.5469637,8.9754284 15.2923845,11.3831774 12.4121381,11.6139421 L12.1893741,11.6273712 L11.964857,11.6318651 L8.5683194,11.6318651 C8.44997267,11.6318651 8.35083258,11.5496316 8.32492208,11.4391878 L8.3183194,11.3818651 L8.3183194,9.96040403 C8.3183194,9.8420573 8.40055281,9.74291721 8.51099669,9.71700671 L8.5683194,9.71040403 L11.964857,9.71040403 C13.9809376,9.71040403 15.6211651,8.07511161 15.6211651,6.06588514 C15.6211651,4.19119843 14.1892826,2.63156257 12.350846,2.44122109 L12.1592547,2.42645834 L11.964857,2.42146102 L6.08210676,2.42146102 C4.06610121,2.42146102 2.42579866,4.05677336 2.42579866,6.06588514 C2.42579866,6.92668393 2.72839014,7.74117321 3.26460092,8.38512966 L3.41658061,8.55643273 L3.57309953,8.71302344 L3.6462823,8.8897596 L3.6462823,10.6553089 C3.6462823,10.8483067 3.43688114,10.9685179 3.27021751,10.871197 C1.56949184,9.8780824 0.5,8.06249539 0.5,6.06588514 C0.5,3.15635672 2.75456455,0.748679642 5.63482469,0.517922293 L5.85758982,0.504493693 L6.08210676,0.5 L11.964857,0.5 Z" id="Hotspot-Icon" fill="url(#linearGradient-1)" fill-rule="nonzero"></path>
    </g>
</svg>