<?xml version="1.0" encoding="UTF-8"?>
<svg width="31px" height="25px" viewBox="0 0 32 32" version="1.1" xmlns="http://www.w3.org/2000/svg">
    <title>btn-navigate</title>
    <defs>
        <linearGradient x1="50%" y1="0%" x2="50%" y2="100%" id="linearGradient-1">
            <stop stop-color="#00B2FF" offset="0%" />
            <stop stop-color="#007AFF" offset="100%" />
        </linearGradient>
    </defs>
    <g transform="translate(-16, -16) scale(2)" id="btn-navigate" stroke="none" stroke-width="1" fill="none" fill-rule="evenodd">
        <path d="M25,8 C25.5522847,8 26,8.44771525 26,9 L26,23 C26,23.5522847 25.5522847,24 25,24 C24.4477153,24 24,23.5522847 24,23 L24,9 C24,8.44771525 24.4477153,8 25,8 Z M14.8786797,9.60446609 L20.5355339,15.2613203 C20.7157759,15.4415623 20.8128293,15.6734911 20.826694,15.9093957 L20.826694,16.0706043 C20.8151401,16.2671915 20.7458162,16.4610176 20.6187225,16.6244723 L20.5355339,16.7186797 L14.8786797,22.3755339 C14.4881554,22.7660582 13.8549904,22.7660582 13.4644661,22.3755339 C13.1039821,22.0150499 13.0762526,21.4478189 13.3812775,21.0555277 L13.4644661,20.9613203 L17.425,16.9995729 L7,17 C6.44771525,17 6,16.5522847 6,16 C6,15.4477153 6.44771525,15 7,15 L17.446,14.9995729 L13.4644661,11.0186797 C13.0739418,10.6281554 13.0739418,9.99499039 13.4644661,9.60446609 C13.8549904,9.2139418 14.4881554,9.2139418 14.8786797,9.60446609 Z" id="Combined-Shape" fill="url(#linearGradient-1)" />
    </g>
</svg>