<?xml version="1.0" encoding="UTF-8"?>
<svg width="19px" height="19px" viewBox="0 0 19 19" version="1.1" xmlns="http://www.w3.org/2000/svg" xmlns:xlink="http://www.w3.org/1999/xlink">
    <title>btn-link-highlighted</title>
    <defs>
        <linearGradient x1="50%" y1="0%" x2="50%" y2="100%" id="linearGradient-1">
            <stop stop-color="#00B2FF" offset="0%"></stop>
            <stop stop-color="#007AFF" offset="100%"></stop>
        </linearGradient>
    </defs>
    <g id="btn-link-highlighted" stroke="none" stroke-width="1" fill="none" fill-rule="evenodd">
        <path d="M1,4.02421356 C1.51283584,4.02421356 1.93550716,4.41025375 1.99327227,4.90759244 L2,5.02421356 L2,14.0242136 C2,15.6218944 3.24891996,16.9278744 4.82372721,17.0191209 L5,17.0242136 L14,17.0242136 C14.5522847,17.0242136 15,17.4719288 15,18.0242136 C15,18.5370494 14.6139598,18.9597207 14.1166211,19.0174858 L14,19.0242136 L5,19.0242136 C2.3112453,19.0242136 0.118181885,16.9019069 0.00461951385,14.2411032 L0,14.0242136 L0,5.02421356 C0,4.47192881 0.44771525,4.02421356 1,4.02421356 Z M17.9779221,0.0485990257 L18.1033599,0.0563904454 C18.3088087,0.0821015304 18.4948838,0.170137974 18.6420619,0.300976235 L18.6420619,0.300976235 L18.7560535,0.414967875 C18.9130594,0.591581531 19.0084307,0.824207025 19.0084307,1.07910768 L19.0084307,1.07910768 L19.0084307,9.9075348 C19.0084307,10.4598196 18.5607155,10.9075348 18.0084307,10.9075348 C17.456146,10.9075348 17.0084307,10.4598196 17.0084307,9.9075348 L17.0084307,9.9075348 L17.0088082,3.35808528 L6.79241542,12.723401 C6.39775538,13.0852296 5.78812661,13.072007 5.40952621,12.6934066 L5.40952621,12.6934066 L5.35078274,12.6333896 C4.99340491,12.2435843 5.01969262,11.6378726 5.40949798,11.2804948 L5.40949798,11.2804948 L15.4793363,2.04923063 L9.14949494,2.04859903 L9.03287381,2.04187129 C8.53553513,1.98410619 8.14949494,1.56143486 8.14949494,1.04859903 C8.14949494,0.496314276 8.59721019,0.0485990257 9.14949494,0.0485990257 L9.14949494,0.0485990257 L17.9779221,0.0485990257 Z" id="Combined-Shape" fill="url(#linearGradient-1)"></path>
    </g>
</svg>