<?xml version="1.0" encoding="UTF-8"?>
<svg width="32px" height="32px" viewBox="0 0 32 32" version="1.1" xmlns="http://www.w3.org/2000/svg" xmlns:xlink="http://www.w3.org/1999/xlink">
    <title>btn-rearrange-top</title>
    <g id="btn-rearrange-top" stroke="none" stroke-width="1" fill="none" fill-rule="evenodd">
        <path d="M16.6390873,11.5680194 C16.6728902,11.6018223 16.7035783,11.6375606 16.7311515,11.6748774 L22.6590874,17.6035534 C23.0259224,17.9703884 23.0259224,18.5651455 22.6590874,18.9319805 C22.2922523,19.2988155 21.6974953,19.2988155 21.3306603,18.9319805 L21.3306603,18.9319805 L17.01,14.6105212 L17.0109128,26 C17.0109128,26.5522847 16.5631975,27 16.0109128,27 C15.458628,27 15.0109128,26.5522847 15.0109128,26 L15.01,14.5245212 L10.6035533,18.9319805 C10.2367183,19.2988155 9.64196124,19.2988155 9.27512624,18.9319805 C8.90829125,18.5651455 8.90829125,17.9703885 9.27512624,17.6035535 L15.2030622,11.6748775 C15.2306354,11.6375606 15.2613234,11.6018224 15.2951263,11.5680195 C15.4644348,11.398711 15.6822947,11.3075449 15.9038894,11.2945212 L16.0303243,11.2945212 C16.2519189,11.3075449 16.4697788,11.398711 16.6390873,11.5680194 Z" id="Combined-Shape" fill="#7F89A1"></path>
        <path d="M16.6390873,5.56801943 C16.6728902,5.60182234 16.7035783,5.63756056 16.7311515,5.67487744 L22.6590874,11.6035534 C23.0259224,11.9703884 23.0259224,12.5651455 22.6590874,12.9319805 C22.2922523,13.2988155 21.6974953,13.2988155 21.3306603,12.9319805 L21.3306603,12.9319805 L15.967,7.56752116 L10.6035533,12.9319805 C10.2367183,13.2988155 9.64196124,13.2988155 9.27512624,12.9319805 C8.90829125,12.5651455 8.90829125,11.9703885 9.27512624,11.6035535 L15.2030622,5.67487748 C15.2306354,5.63756061 15.2613234,5.60182238 15.2951263,5.56801947 C15.4644348,5.398711 15.6822947,5.30754491 15.9038894,5.29452118 L16.0303243,5.29452116 C16.2519189,5.30754488 16.4697788,5.39871098 16.6390873,5.56801943 Z" id="Combined-Shape-Copy-6" fill="#7F89A1"></path>
    </g>
</svg>