<?xml version="1.0" encoding="UTF-8"?>
<svg width="32px" height="32px" viewBox="0 0 32 32" version="1.1" xmlns="http://www.w3.org/2000/svg" xmlns:xlink="http://www.w3.org/1999/xlink">
    <title>btn-rearrange-bottom</title>
    <g id="btn-rearrange-bottom" stroke="none" stroke-width="1" fill="none" fill-rule="evenodd">
        <path d="M16.6390873,5.27349828 C16.6728902,5.30730118 16.7035783,5.34303941 16.7311515,5.38035628 L22.6590874,11.3090322 C23.0259224,11.6758673 23.0259224,12.2706243 22.6590874,12.6374593 C22.2922523,13.0042944 21.6974953,13.0042944 21.3306603,12.6374593 L21.3306603,12.6374593 L17.01,8.316 L17.0109128,19.7054788 C17.0109128,20.2577636 16.5631975,20.7054788 16.0109128,20.7054788 C15.458628,20.7054788 15.0109128,20.2577636 15.0109128,19.7054788 L15.01,8.23 L10.6035533,12.6374593 C10.2367183,13.0042943 9.64196124,13.0042943 9.27512624,12.6374593 C8.90829125,12.2706243 8.90829125,11.6758673 9.27512624,11.3090323 L15.2030622,5.38035633 C15.2306354,5.34303945 15.2613234,5.30730122 15.2951263,5.27349832 C15.4644348,5.10418985 15.6822947,5.01302375 15.9038894,5.00000002 L16.0303243,5 C16.2519189,5.01302373 16.4697788,5.10418982 16.6390873,5.27349828 Z" id="Combined-Shape" fill="#7F89A1" transform="translate(15.967107, 12.852739) scale(1, -1) translate(-15.967107, -12.852739) "></path>
        <path d="M16.6390873,19.0663915 C16.6728902,19.1001944 16.7035783,19.1359326 16.7311515,19.1732495 L22.6590874,25.1019255 C23.0259224,25.4687605 23.0259224,26.0635176 22.6590874,26.4303526 C22.2922523,26.7971876 21.6974953,26.7971876 21.3306603,26.4303526 L21.3306603,26.4303526 L15.967,21.0658932 L10.6035533,26.4303526 C10.2367183,26.7971876 9.64196124,26.7971876 9.27512624,26.4303526 C8.90829125,26.0635176 8.90829125,25.4687605 9.27512624,25.1019255 L15.2030622,19.1732496 C15.2306354,19.1359327 15.2613234,19.1001945 15.2951263,19.0663916 C15.4644348,18.8970831 15.6822947,18.805917 15.9038894,18.7928933 L16.0303243,18.7928932 C16.2519189,18.805917 16.4697788,18.8970831 16.6390873,19.0663915 Z" id="Combined-Shape-Copy-6" fill="#7F89A1" transform="translate(15.967107, 22.749186) scale(1, -1) translate(-15.967107, -22.749186) "></path>
    </g>
</svg>