<?xml version="1.0" encoding="UTF-8"?>
<svg width="32px" height="32px" viewBox="0 0 32 32" version="1.1" xmlns="http://www.w3.org/2000/svg" xmlns:xlink="http://www.w3.org/1999/xlink">
    <title>btn-data</title>
    <defs>
        <linearGradient x1="50%" y1="0%" x2="50%" y2="100%" id="linearGradient-1">
            <stop stop-color="#00B2FF" offset="0%"></stop>
            <stop stop-color="#007AFF" offset="100%"></stop>
        </linearGradient>
    </defs>
    <g id="btn-data" stroke="none" stroke-width="1" fill="none" fill-rule="evenodd">
        <path d="M18.7498626,11.9433702 C18.8682093,11.9433702 18.9673494,12.0256036 18.9932599,12.1360475 L18.9998626,12.1933702 L18.9998626,13.6148312 C18.9998626,13.7331779 18.9176292,13.832318 18.8071853,13.8582285 L18.7498626,13.8648312 L15.353325,13.8648312 C13.3372306,13.8648312 11.6970169,15.5001374 11.6970169,17.5094449 C11.6970169,19.384114 13.1288819,20.943682 14.9673339,21.1340151 L15.1589269,21.1487772 L15.353325,21.1537742 L21.2360752,21.1537742 C23.2521008,21.1537742 24.8923833,19.5185367 24.8923833,17.5094449 C24.8923833,16.6485944 24.5898098,15.8340855 24.0536359,15.1901024 L23.9016668,15.0187918 L23.7451668,14.8622011 L23.6719947,14.6854756 L23.6719947,12.9199263 C23.6719947,12.7269257 23.8814016,12.6067148 24.0480652,12.7040415 C25.7487247,13.6971772 26.818182,15.5127794 26.818182,17.5094449 C26.818182,20.4188973 24.5636037,22.8265571 21.6833563,23.057313 L21.4605922,23.0707415 L21.2360752,23.0752352 L15.353325,23.0752352 C12.2752526,23.0752352 9.77121829,20.5788496 9.77121829,17.5094449 C9.77121829,14.5998868 12.0258122,12.1920658 14.9060448,11.9612937 L15.1288077,11.9478642 L15.353325,11.9433702 L18.7498626,11.9433702 Z M16.964857,7.5 C20.0429448,7.5 22.5469637,9.99640101 22.5469637,13.0658851 C22.5469637,15.9754284 20.2923845,18.3831774 17.4121381,18.6139421 L17.1893741,18.6273712 L16.964857,18.6318651 L13.5683194,18.6318651 C13.4499727,18.6318651 13.3508326,18.5496316 13.3249221,18.4391878 L13.3183194,18.3818651 L13.3183194,16.960404 C13.3183194,16.8420573 13.4005528,16.7429172 13.5109967,16.7170067 L13.5683194,16.710404 L16.964857,16.710404 C18.9809376,16.710404 20.6211651,15.0751116 20.6211651,13.0658851 C20.6211651,11.1911984 19.1892826,9.63156257 17.350846,9.44122109 L17.1592547,9.42645834 L16.964857,9.42146102 L11.0821068,9.42146102 C9.06610121,9.42146102 7.42579866,11.0567734 7.42579866,13.0658851 C7.42579866,13.9266839 7.72839014,14.7411732 8.26460092,15.3851297 L8.41658061,15.5564327 L8.57309953,15.7130234 L8.6462823,15.8897596 L8.6462823,17.6553089 C8.6462823,17.8483067 8.43688114,17.9685179 8.27021751,17.871197 C6.56949184,16.8780824 5.5,15.0624954 5.5,13.0658851 C5.5,10.1563567 7.75456455,7.74867964 10.6348247,7.51792229 L10.8575898,7.50449369 L11.0821068,7.5 L16.964857,7.5 Z" id="Hotspot-Icon" fill="url(#linearGradient-1)" fill-rule="nonzero"></path>
    </g>
</svg>