<?xml version="1.0" encoding="UTF-8"?>
<svg width="38px" height="38px" viewBox="0 0 38 38" version="1.1" xmlns="http://www.w3.org/2000/svg" xmlns:xlink="http://www.w3.org/1999/xlink">
    <title>action-close-highlighted</title>
    <defs>
        <linearGradient x1="50%" y1="0%" x2="50%" y2="100%" id="linearGradient-1">
            <stop stop-color="#00B2FF" offset="0%"></stop>
            <stop stop-color="#007AFF" offset="100%"></stop>
        </linearGradient>
    </defs>
    <g id="action-close-highlighted" stroke="none" stroke-width="1" fill="none" fill-rule="evenodd">
        <path d="M12.1128932,12.2928932 C12.5034175,11.9023689 13.1365825,11.9023689 13.5271068,12.2928932 L13.5271068,12.2928932 L19.002,17.767 L24.4768542,12.2928932 C24.8673785,11.9023689 25.5005435,11.9023689 25.8910678,12.2928932 C26.2815921,12.6834175 26.2815921,13.3165825 25.8910678,13.7071068 L20.417,19.182 L25.8910678,24.6568542 C26.2515518,25.0173382 26.2792813,25.5845693 25.9742564,25.9768605 L25.8910678,26.0710678 C25.5005435,26.4615921 24.8673785,26.4615921 24.4768542,26.0710678 L24.4768542,26.0710678 L19.002,20.597 L13.5271068,26.0710678 C13.1365825,26.4615921 12.5034175,26.4615921 12.1128932,26.0710678 C11.7223689,25.6805435 11.7223689,25.0473785 12.1128932,24.6568542 L17.587,19.182 L12.1128932,13.7071068 C11.7524093,13.3466228 11.7246797,12.7793918 12.0297046,12.3871006 Z" id="Combined-Shape" fill="url(#linearGradient-1)" fill-rule="nonzero"></path>
    </g>
</svg>