<?xml version="1.0" encoding="UTF-8"?>
<svg width="21px" height="21px" viewBox="0 0 21 21" version="1.1" xmlns="http://www.w3.org/2000/svg" xmlns:xlink="http://www.w3.org/1999/xlink">
    <title>btn-phone-highlighted</title>
    <defs>
        <linearGradient x1="50%" y1="0%" x2="50%" y2="100%" id="linearGradient-1">
            <stop stop-color="#00B2FF" offset="0%"></stop>
            <stop stop-color="#007AFF" offset="100%"></stop>
        </linearGradient>
    </defs>
    <g id="btn-phone-highlighted" stroke="none" stroke-width="1" fill="none" fill-rule="evenodd">
        <path d="M5.89830343,0.5 C8.65972718,0.5 10.8983034,2.73857625 10.8983034,5.5 C10.8983034,8.26142375 8.65972718,10.5 5.89830343,10.5 C5.12172665,10.5 4.38650008,10.3229587 3.73078322,10.0070356 C4.2041254,11.169496 4.91592791,12.3817092 5.94747692,13.7489014 C7.17303137,15.3732239 8.8524915,16.5061716 10.6030386,17.1916246 C10.279488,16.5289047 10.0983034,15.7856113 10.0983034,15 C10.0983034,12.2385763 12.3368797,10 15.0983034,10 C17.8597272,10 20.0983034,12.2385763 20.0983034,15 C20.0983034,17.7614237 17.8597272,20 15.0983034,20 C15.0141425,20 14.9304673,19.9979207 14.8473263,19.9938105 C14.8094255,19.9976751 14.7701705,20 14.7303724,20 C11.2498027,20 6.9917889,18.4536273 4.35093351,14.9534964 C1.70748172,11.4499242 0.898303429,8.70725878 0.898303429,5.5 L0.902922943,5.28311038 C0.903151353,5.27775867 0.903388174,5.27240914 0.903633396,5.26706179 L0.898303429,5.5 C0.898303429,3.92089149 1.53474066,2.58779598 2.76789753,1.57755945 C2.82632156,1.52969685 2.88853885,1.48955041 2.95331444,1.45699739 C3.77966266,0.855775918 4.79743509,0.5 5.89830343,0.5 Z M15.0983034,12 C13.4414492,12 12.0983034,13.3431458 12.0983034,15 C12.0983034,16.6568542 13.4414492,18 15.0983034,18 C16.7551577,18 18.0983034,16.6568542 18.0983034,15 C18.0983034,13.3431458 16.7551577,12 15.0983034,12 Z M5.89830343,2.5 C4.24144918,2.5 2.89830343,3.84314575 2.89830343,5.5 C2.89830343,7.15685425 4.24144918,8.5 5.89830343,8.5 C7.55515768,8.5 8.89830343,7.15685425 8.89830343,5.5 C8.89830343,3.84314575 7.55515768,2.5 5.89830343,2.5 Z" id="Combined-Shape" fill="url(#linearGradient-1)"></path>
    </g>
</svg>