<?xml version="1.0" encoding="UTF-8"?>
<svg width="20px" height="20px" viewBox="0 0 20 20" version="1.1" xmlns="http://www.w3.org/2000/svg" xmlns:xlink="http://www.w3.org/1999/xlink">
    <title>btn-email-highlighted</title>
    <defs>
        <linearGradient x1="50%" y1="0%" x2="50%" y2="100%" id="linearGradient-1">
            <stop stop-color="#00B2FF" offset="0%"></stop>
            <stop stop-color="#007AFF" offset="100%"></stop>
        </linearGradient>
    </defs>
    <g id="btn-email-highlighted" stroke="none" stroke-width="1" fill="none" fill-rule="evenodd">
        <path d="M10.3526563,19.7803125 C11.8175,19.7803125 13.03625,19.6045313 13.8448438,19.335 C14.5128125,19.100625 14.7589063,18.7842188 14.7589063,18.350625 C14.7589063,17.9053125 14.4659375,17.6240625 13.926875,17.6240625 C13.78625,17.6240625 13.6339063,17.6357813 13.4464063,17.6709375 C12.5089063,17.881875 11.770625,18.0225 10.7159375,18.0225 C5.7003125,18.0225 2.34875,15.0928125 2.34875,10.1123438 C2.34875,5.2725 5.489375,1.95609375 10.2120313,1.95609375 C14.4073438,1.95609375 17.6651563,4.5459375 17.6651563,9.17484375 C17.6651563,11.5303125 16.833125,13.1709375 15.6026563,13.1709375 C14.8057813,13.1709375 14.3721875,12.7021875 14.3721875,11.8935938 L14.3721875,6.350625 C14.3721875,5.6240625 13.97375,5.2021875 13.270625,5.2021875 C12.5792188,5.2021875 12.1690625,5.6240625 12.1690625,6.350625 L12.1690625,6.85453125 L12.0284375,6.85453125 C11.5596875,5.79984375 10.4815625,5.2021875 9.1925,5.2021875 C6.8721875,5.2021875 5.24328125,7.1475 5.24328125,10.0420312 C5.24328125,12.9951563 6.895625,14.9990625 9.3096875,14.9990625 C10.6690625,14.9990625 11.6885938,14.3310938 12.1807813,13.1357813 L12.333125,13.1357813 C12.5675,14.319375 13.6690625,14.9873438 15.145625,14.9873438 C17.9229688,14.9873438 19.6339063,12.5264063 19.6339063,8.98734375 C19.6339063,3.66703125 15.7198438,0.21 10.22375,0.21 C4.41125,0.21 0.38,4.11234375 0.38,10.05375 C0.38,16.1123438 4.5284375,19.7803125 10.3526563,19.7803125 Z M9.801875,13.0303125 C8.4425,13.0303125 7.645625,11.9170313 7.645625,10.0771875 C7.645625,8.23734375 8.4425,7.1475 9.81359375,7.1475 C11.1846875,7.1475 12.051875,8.2725 12.051875,10.0654688 C12.051875,11.8935938 11.1729688,13.0303125 9.801875,13.0303125 Z" id="@" fill="url(#linearGradient-1)"></path>
    </g>
</svg>