<svg width="40" height="40" viewBox="0 0 40 40" fill="none" xmlns="http://www.w3.org/2000/svg">
<rect width="40" height="40" rx="19" fill="url(#paint0_radial)"/>
<path fill-rule="evenodd" clip-rule="evenodd" d="M23.4638 10.3984C24.3136 9.38996 24.7399 8.30039 24.7399 7.13346V7.13345C24.7399 6.97867 24.7327 6.82266 24.7154 6.66666C24.1234 6.69737 23.494 6.87672 22.8286 7.20101C22.1618 7.53022 21.6119 7.9429 21.1795 8.43922C20.3135 9.41948 19.8258 10.6184 19.8258 11.7386C19.8258 11.8935 19.8357 12.0408 19.8529 12.1808C21.1979 12.2901 22.4383 11.5973 23.4638 10.3984ZM27.9877 27.1059C28.4717 26.416 28.8893 25.6656 29.2422 24.8504C29.3877 24.5047 29.5245 24.1447 29.6541 23.7688C29.0564 23.5182 28.5192 23.1653 28.0381 22.7087C26.9766 21.725 26.4365 20.4861 26.4207 18.9972C26.4034 17.0858 27.2719 15.5959 29.0276 14.5321C28.0468 13.1379 26.5719 12.364 24.6088 12.2056C23.8844 12.1441 23 12.3002 21.9522 12.6773C20.8442 13.0839 20.1906 13.2878 19.9977 13.2878C19.7398 13.2878 19.1514 13.1134 18.2351 12.7694C17.3162 12.4267 16.5768 12.2522 16.0129 12.2522C14.9824 12.2694 14.0255 12.5373 13.1398 13.063C12.2542 13.5887 11.5466 14.3048 11.0147 15.2126C10.3379 16.3428 10 17.6915 10 19.2552C10 20.6203 10.2506 22.0303 10.7505 23.4865C11.2173 24.8346 11.8132 26.017 12.5379 27.0368C13.2134 27.9917 13.7773 28.6657 14.2281 29.0589C14.9344 29.7157 15.642 30.0282 16.3519 29.998C16.8187 29.9822 17.4293 29.8223 18.1872 29.5155C18.9439 29.2102 19.6514 29.0589 20.311 29.0589C20.94 29.0589 21.6279 29.2102 22.3764 29.5155C23.1224 29.8223 23.7634 29.9735 24.2948 29.9735C25.0351 29.9562 25.7265 29.6523 26.3717 29.0589C26.788 28.6974 27.3281 28.0464 27.9877 27.1059Z" fill="white"/>
<defs>
<radialGradient id="paint0_radial" cx="0" cy="0" r="1" gradientUnits="userSpaceOnUse" gradientTransform="translate(20) rotate(90) scale(40 59.6665)">
<stop stop-color="#9697A0"/>
<stop offset="1" stop-color="#3D3741"/>
</radialGradient>
</defs>
</svg>
