<svg width="40" height="40" viewBox="0 0 40 40" fill="none" xmlns="http://www.w3.org/2000/svg">
<rect width="40" height="40" rx="19" fill="url(#paint0_radial)"/>
<path fill-rule="evenodd" clip-rule="evenodd" d="M28.3167 12.2193C28.3949 12.3547 28.3948 12.5215 28.3164 12.6569L26.2082 16.2992C29.8282 18.2633 32.3041 21.9191 32.6667 26.2384H7.33337C7.69557 21.9191 10.1717 18.2633 13.7918 16.2992L11.6835 12.6563C11.6051 12.5209 11.6052 12.3541 11.6835 12.2187C11.7619 12.0834 11.9067 12 12.0634 12C12.2201 12 12.3649 12.0834 12.4433 12.2188L14.5779 15.9071C16.2103 15.1645 18.0436 14.7501 19.9998 14.7501C21.9561 14.7501 23.7896 15.1639 25.422 15.9071L27.5568 12.2188C27.6353 12.0835 27.7801 12.0001 27.9369 12.0002C28.0936 12.0003 28.2384 12.0838 28.3167 12.2193ZM11.9173 21.5236C11.9171 20.2255 12.9692 19.173 14.2672 19.1727C15.5653 19.1725 16.6178 20.2246 16.618 21.5227C16.6168 22.8201 15.5656 23.8718 14.2681 23.8735C12.9701 23.8737 11.9176 22.8216 11.9173 21.5236ZM23.5669 21.5236C23.5667 20.2255 24.6188 19.173 25.9169 19.1727C27.2149 19.1725 28.2674 20.2246 28.2677 21.5227C28.2662 22.82 27.2151 23.8715 25.9178 23.8735C24.6197 23.8737 23.5672 22.8216 23.5669 21.5236Z" fill="white"/>
<path d="M28.3164 12.6569L27.4512 12.1554L27.4509 12.1559L28.3164 12.6569ZM28.3167 12.2193L27.4509 12.7197L27.4509 12.7197L28.3167 12.2193ZM26.2082 16.2992L25.3428 15.7982C25.2075 16.0319 25.1725 16.3104 25.2457 16.5702C25.3189 16.8301 25.494 17.0494 25.7313 17.1781L26.2082 16.2992ZM32.6667 26.2384V27.2384C32.9465 27.2384 33.2134 27.1213 33.4028 26.9153C33.5922 26.7094 33.6866 26.4336 33.6632 26.1548L32.6667 26.2384ZM7.33337 26.2384L6.33687 26.1549C6.3135 26.4336 6.40795 26.7095 6.59732 26.9154C6.78668 27.1213 7.05363 27.2384 7.33337 27.2384V26.2384ZM13.7918 16.2992L14.2687 17.1781C14.506 17.0494 14.6812 16.8301 14.7544 16.5703C14.8276 16.3104 14.7926 16.0319 14.6573 15.7983L13.7918 16.2992ZM11.6835 12.6563L10.8179 13.1571L10.818 13.1572L11.6835 12.6563ZM11.6835 12.2187L12.549 12.7198L12.549 12.7198L11.6835 12.2187ZM12.0634 12L12.0635 11L12.0635 11L12.0634 12ZM12.4433 12.2188L11.5777 12.7196L11.5778 12.7197L12.4433 12.2188ZM14.5779 15.9071L13.7124 16.4081C13.9701 16.8534 14.5236 17.0304 14.9919 16.8174L14.5779 15.9071ZM25.422 15.9071L25.0077 16.8173C25.476 17.0305 26.0297 16.8535 26.2875 16.4081L25.422 15.9071ZM27.5568 12.2188L26.6916 11.7174L26.6913 11.7179L27.5568 12.2188ZM27.9369 12.0002L27.9374 11.0002L27.9369 12.0002ZM16.618 21.5227L17.618 21.5236L17.618 21.5225L16.618 21.5227ZM14.2681 23.8735L14.2683 24.8735L14.2694 24.8735L14.2681 23.8735ZM28.2677 21.5227L29.2677 21.5238L29.2677 21.5225L28.2677 21.5227ZM25.9178 23.8735L25.9179 24.8735L25.9193 24.8735L25.9178 23.8735ZM29.1816 13.1583C29.4396 12.7132 29.4399 12.1642 29.1824 11.7188L27.4509 12.7197C27.35 12.5451 27.3501 12.3298 27.4512 12.1554L29.1816 13.1583ZM27.0737 16.8001L29.1819 13.1578L27.4509 12.1559L25.3428 15.7982L27.0737 16.8001ZM33.6632 26.1548C33.2721 21.4957 30.5976 17.5431 26.6851 15.4202L25.7313 17.1781C29.0588 18.9836 31.3361 22.3425 31.6702 26.3221L33.6632 26.1548ZM7.33337 27.2384H32.6667V25.2384H7.33337V27.2384ZM13.315 15.4202C9.40233 17.543 6.72757 21.4957 6.33687 26.1549L8.32988 26.322C8.66357 22.3426 10.9411 18.9836 14.2687 17.1781L13.315 15.4202ZM10.818 13.1572L12.9263 16.8001L14.6573 15.7983L12.549 12.1553L10.818 13.1572ZM10.8181 11.7177C10.5604 12.1629 10.5603 12.7118 10.8179 13.1571L12.549 12.1554C12.65 12.3299 12.65 12.5453 12.549 12.7198L10.8181 11.7177ZM12.0635 11C11.5508 10.9999 11.0757 11.2728 10.8181 11.7177L12.549 12.7198C12.4481 12.894 12.2627 13 12.0633 13L12.0635 11ZM13.3088 11.718C13.0513 11.273 12.5763 11.0001 12.0635 11L12.0633 13C11.8639 13 11.6785 12.8939 11.5777 12.7196L13.3088 11.718ZM15.4434 15.4062L13.3088 11.7179L11.5778 12.7197L13.7124 16.4081L15.4434 15.4062ZM19.9998 13.7501C17.9009 13.7501 15.9265 14.195 14.1638 14.9969L14.9919 16.8174C16.4942 16.134 18.1862 15.7501 19.9998 15.7501V13.7501ZM25.8364 14.997C24.0733 14.1944 22.0985 13.7501 19.9998 13.7501V15.7501C21.8137 15.7501 23.5058 16.1335 25.0077 16.8173L25.8364 14.997ZM26.6913 11.7179L24.5565 15.4062L26.2875 16.4081L28.4223 12.7198L26.6913 11.7179ZM27.9374 11.0002C27.4247 10.9999 26.9494 11.2725 26.6916 11.7174L28.422 12.7202C28.3211 12.8944 28.1356 13.0003 27.9363 13.0002L27.9374 11.0002ZM29.1824 11.7188C28.9251 11.2737 28.4502 11.0005 27.9374 11.0002L27.9363 13.0002C27.737 13.0001 27.5516 12.8939 27.4509 12.7197L29.1824 11.7188ZM14.267 18.1727C12.4167 18.1731 10.917 19.6734 10.9173 21.5237L12.9173 21.5234C12.9172 20.7776 13.5216 20.1729 14.2674 20.1727L14.267 18.1727ZM17.618 21.5225C17.6177 19.6721 16.1174 18.1724 14.267 18.1727L14.2674 20.1727C15.0132 20.1726 15.6179 20.7771 15.618 21.5229L17.618 21.5225ZM14.2694 24.8735C16.1183 24.871 17.6163 23.3725 17.618 21.5236L15.618 21.5217C15.6173 22.2678 15.0129 22.8725 14.2668 22.8735L14.2694 24.8735ZM10.9173 21.5237C10.9177 23.3741 12.418 24.8738 14.2683 24.8735L14.2679 22.8735C13.5221 22.8736 12.9175 22.2692 12.9173 21.5234L10.9173 21.5237ZM25.9167 18.1727C24.0663 18.1731 22.5666 19.6734 22.5669 21.5237L24.5669 21.5234C24.5668 20.7776 25.1713 20.1729 25.9171 20.1727L25.9167 18.1727ZM29.2677 21.5225C29.2673 19.6721 27.767 18.1724 25.9167 18.1727L25.9171 20.1727C26.6628 20.1726 27.2675 20.7771 27.2677 21.5229L29.2677 21.5225ZM25.9193 24.8735C27.7679 24.8707 29.2656 23.3724 29.2677 21.5238L27.2677 21.5215C27.2668 22.2676 26.6624 22.8724 25.9163 22.8735L25.9193 24.8735ZM22.5669 21.5237C22.5673 23.3741 24.0676 24.8738 25.9179 24.8735L25.9176 22.8735C25.1718 22.8736 24.5671 22.2692 24.5669 21.5234L22.5669 21.5237Z" fill="white"/>
<defs>
<radialGradient id="paint0_radial" cx="0" cy="0" r="1" gradientUnits="userSpaceOnUse" gradientTransform="translate(20) rotate(90) scale(38.6966 57.7223)">
<stop stop-color="#5EFFA6"/>
<stop offset="1" stop-color="#01A94C"/>
</radialGradient>
</defs>
</svg>
