<svg height="83" viewBox="0 0 72 83" width="72" xmlns="http://www.w3.org/2000/svg">
    <defs>
        <linearGradient id="gvj3oyh2za" x1="50%" x2="50%" y1="21.418%" y2="99.738%">
            <stop offset="0%" stop-color="#FFF" stop-opacity=".5" />
            <stop offset="100%" stop-color="#FFF" />
        </linearGradient>
    </defs>
    <g fill="none" fill-rule="evenodd" opacity=".7">
        <g fill="url(#gvj3oyh2za)" transform="translate(-305 -901)">
            <g>
                <path d="M251 79v1.71c0 1.265-1.024 2.291-2.287 2.29h-11.428c-1.262 0-2.285-1.026-2.285-2.29V79h16zm6-15v7.779c0 1.226-1.045 2.22-2.334 2.221h-1.162v-.002h-22.17c-1.29.002-2.334-.993-2.334-2.22V64h28zm-14.503-89C264.837-25 283-6.81 283 15.56c0 14.25-7.606 27.225-19.67 34.522v6.6c-.001 1.28-1.037 2.318-2.315 2.318H244.81V30.405l3.467-3.472 4.151 4.148c.905.911 2.377.911 3.282 0l5.78-5.788c2.175-2.178-1.016-5.528-3.27-3.277l-4.151 4.148-4.152-4.148c-.903-.903-2.366-.903-3.27 0l-4.142 4.148-4.152-4.148c-.905-.91-2.377-.91-3.281 0l-4.152 4.148-4.143-4.148c-2.298-2.301-5.657.888-3.27 3.277l5.784 5.788c.903.904 2.366.904 3.27 0l4.151-4.148 3.467 3.465V59h-15.04c-1.279.001-2.316-1.037-2.317-2.317v-5.936C210.091 43.607 202.016 30.253 202 15.56 202-6.81 220.157-25 242.497-25z"
                        transform="translate(103 901)" />
            </g>
        </g>
    </g>
</svg>
