<svg width="60" height="60" fill="none" xmlns="http://www.w3.org/2000/svg"><rect width="60" height="60" rx="19" fill="url(#paint0_radial)"/><path opacity=".5" fill-rule="evenodd" clip-rule="evenodd" d="M46.263 13.7365c-8.9819-8.98199-23.5446-8.98199-32.5265 0-8.98199 8.9819-8.98199 23.5446 0 32.5265 5.8103 5.8103 14.279 8.0795 22.216 5.9528 7.937-2.1267 14.1366-8.3263 16.2633-16.2633 2.1267-7.937-.1425-16.4057-5.9528-22.216zm-15.1642 7.3109c2.5364-.0553 5.0627-.3388 7.5482-.8473.7227 2.851 1.1207 5.7746 1.1862 8.7151h-8.715l-.0194-7.8678zm0-11.7072v9.5236c2.3227-.0581 4.636-.3173 6.914-.7746-1.5881-4.7255-4.0961-8.0518-6.914-8.749zm-2.1981 0v9.5236c-2.3224-.0552-4.6357-.3111-6.914-.765 1.5978-4.74 4.0961-8.0614 6.914-8.7586zm0 19.5605v-7.8533c-2.5288-.0615-5.0469-.3499-7.524-.8618-.7267 2.8504-1.1263 5.7743-1.1911 8.7151h8.7151zm-10.9374 0H9.22884c.2195-4.1575 1.68556-8.1526 4.20746-11.4652 1.8315.9634 3.7659 1.717 5.7664 2.2466-.7625 3.0157-1.1784 6.1086-1.2394 9.2186zm1.2394 11.3973c-.7608-3.0094-1.1766-6.0957-1.2394-9.1992H9.22884c.2147 4.1659 1.68106 8.1701 4.20746 11.4894 1.8299-.9777 3.7643-1.746 5.7664-2.2902zm.9635-9.1992h8.7151v7.8532c-2.5364.0553-5.0627.3389-7.5482.8473-.7151-2.847-1.1065-5.7656-1.1669-8.7005zm8.7345 19.5605v-9.5237c-2.3227.0582-4.636.3174-6.914.7747 1.5881 4.7255 4.0961 8.0518 6.914 8.749zm2.1981-.0146v-9.5091c2.3224.0552 4.6357.3112 6.914.765-1.5978 4.7401-4.0961 8.0615-6.914 8.7587v-.0146zm0-19.5459v7.8532c2.5287.0616 5.0469.35 7.524.8619.7267-2.8504 1.1263-5.7743 1.1911-8.7151h-8.7151zm10.9374 0h8.7151c-.2091 4.1638-1.6686 8.1678-4.1881 11.4894-1.8305-.9717-3.7649-1.7335-5.7665-2.2708.7626-3.0157 1.1785-6.1086 1.2395-9.2186zm-1.2346-11.3974c.7568 3.0101 1.1709 6.0961 1.2346 9.1993h8.7344c-.2233-4.1508-1.6892-8.1386-4.2074-11.4458-1.8306.9617-3.7632 1.7153-5.7616 2.2465zm4.2994-3.9847c-1.576.7883-3.2294 1.4114-4.9337 1.8592-.3987-1.2177-.8841-2.4054-1.4525-3.5538-.6814-1.3983-1.5442-2.7006-2.5661-3.8733 3.4124 1.0571 6.4953 2.9746 8.9523 5.5679zm-23.8163-1.6946c.6814-1.3983 1.5442-2.7006 2.5661-3.8733-3.413 1.059-6.497 2.9761-8.9572 5.5679 1.5788.7859 3.2335 1.4089 4.9386 1.8592.3965-1.2185.882-2.4063 1.4525-3.5538zm-6.3862 30.2607c1.576-.7884 3.2294-1.4114 4.9337-1.8593.3987 1.2178.8841 2.4054 1.4525 3.5538.6844 1.3989 1.5505 2.7013 2.5758 3.8734-3.4159-1.0557-6.5023-2.9732-8.962-5.5679zm23.8163 1.6945c-.6814 1.3983-1.5442 2.7007-2.5661 3.8734 3.4129-1.059 6.497-2.9761 8.9571-5.5679-1.5787-.7859-3.2334-1.4089-4.9385-1.8593-.3966 1.2186-.882 2.4064-1.4525 3.5538z" fill="url(#paint1_linear)"/><path d="M10.0239 38h4.6563l1.6875-6.4375h.125L18.1802 38h4.6562l3-12h-4.3125l-1.3125 7.25h-.0937L18.5239 26h-4.1875l-1.5312 7.3125h-.0938L11.3364 26H7.02394l2.99996 12zm22.0552.2187c3.3281 0 5.4688-1.5937 5.875-4.0937h-3.9375c-.25.6797-.9609 1.0625-1.8437 1.0625-1.2813 0-2.0313-.8438-2.0313-2V33h7.8125v-1c0-3.8203-2.3437-6.1562-5.9687-6.1562-3.7188 0-6.0938 2.4687-6.0938 6.1875 0 3.8828 2.3438 6.1874 6.1875 6.1874zm-1.9375-7.5937c.0234-1.0391.8828-1.75 1.9375-1.75 1.0703 0 1.8828.7187 1.9063 1.75h-3.8438zM39.0464 38h4.2812v-1.9688h.0938c.5 1.2188 1.6562 2.1251 3.3437 2.1251 2.5625 0 4.7188-2.0001 4.7188-6.1563 0-4.3438-2.3125-6.1562-4.6875-6.1562-1.7813 0-2.9063 1.0312-3.375 2.2499h-.0625V22h-4.3125v16zm4.2187-6c0-1.7813.7188-2.8438 1.9063-2.8438s1.875 1.0625 1.875 2.8438c0 1.7812-.6875 2.8438-1.875 2.8438S43.2651 33.75 43.2651 32z" fill="#fff"/><defs><radialGradient id="paint0_radial" cx="0" cy="0" r="1" gradientUnits="userSpaceOnUse" gradientTransform="matrix(0 60 -89.4998 0 30 0)"><stop stop-color="#FF69E8"/><stop offset="1" stop-color="#A237FF"/></radialGradient><linearGradient id="paint1_linear" x1="7.51324" y1="7" x2="7.51324" y2="51.9735" gradientUnits="userSpaceOnUse"><stop stop-color="#fff"/><stop offset="1" stop-color="#fff" stop-opacity=".3"/></linearGradient></defs></svg>