<?xml version="1.0" encoding="UTF-8"?>
<svg width="32px" height="32px" viewBox="0 0 32 32" version="1.1" xmlns="http://www.w3.org/2000/svg" xmlns:xlink="http://www.w3.org/1999/xlink">
    <title>btn-style-text-align-right-highlighted</title>
    <defs>
        <linearGradient x1="50%" y1="0%" x2="50%" y2="100%" id="linearGradient-1">
            <stop stop-color="#00B2FF" offset="0%"></stop>
            <stop stop-color="#007AFF" offset="100%"></stop>
        </linearGradient>
    </defs>
    <g id="btn-style-text-align-right-highlighted" stroke="none" stroke-width="1" fill="none" fill-rule="evenodd">
        <path d="M24,21 C25.1045695,21 26,21.8954305 26,23 C26,24.1045695 25.1045695,25 24,25 L14,25 C12.8954305,25 12,24.1045695 12,23 C12,21.8954305 12.8954305,21 14,21 L24,21 Z M24,14 C25.1045695,14 26,14.8954305 26,16 C26,17.1045695 25.1045695,18 24,18 L18,18 C16.8954305,18 16,17.1045695 16,16 C16,14.8954305 16.8954305,14 18,14 L24,14 Z M24,7 C25.1045695,7 26,7.8954305 26,9 C26,10.1045695 25.1045695,11 24,11 L8,11 C6.8954305,11 6,10.1045695 6,9 C6,7.8954305 6.8954305,7 8,7 L24,7 Z" id="Combined-Shape" fill="url(#linearGradient-1)"></path>
    </g>
</svg>