<?xml version="1.0" encoding="UTF-8"?>
<svg width="32px" height="32px" viewBox="0 0 32 32" version="1.1" xmlns="http://www.w3.org/2000/svg" xmlns:xlink="http://www.w3.org/1999/xlink">
    <title>btn-style-text-align-center-highlighted</title>
    <defs>
        <linearGradient x1="50%" y1="0%" x2="50%" y2="100%" id="linearGradient-1">
            <stop stop-color="#00B2FF" offset="0%"></stop>
            <stop stop-color="#007AFF" offset="100%"></stop>
        </linearGradient>
    </defs>
    <g id="btn-style-text-align-center-highlighted" stroke="none" stroke-width="1" fill="none" fill-rule="evenodd">
        <path d="M21,21 C22.1045695,21 23,21.8954305 23,23 C23,24.1045695 22.1045695,25 21,25 L11,25 C9.8954305,25 9,24.1045695 9,23 C9,21.8954305 9.8954305,21 11,21 L21,21 Z M19,14 C20.1045695,14 21,14.8954305 21,16 C21,17.1045695 20.1045695,18 19,18 L13,18 C11.8954305,18 11,17.1045695 11,16 C11,14.8954305 11.8954305,14 13,14 L19,14 Z M24,7 C25.1045695,7 26,7.8954305 26,9 C26,10.1045695 25.1045695,11 24,11 L8,11 C6.8954305,11 6,10.1045695 6,9 C6,7.8954305 6.8954305,7 8,7 L24,7 Z" id="Combined-Shape" fill="url(#linearGradient-1)" fill-rule="nonzero"></path>
    </g>
</svg>