<?xml version="1.0" encoding="UTF-8"?>
<svg width="32px" height="32px" viewBox="0 0 32 32" version="1.1" xmlns="http://www.w3.org/2000/svg" xmlns:xlink="http://www.w3.org/1999/xlink">
    <title>btn-style-text-align-left-highlighted</title>
    <defs>
        <linearGradient x1="50%" y1="0%" x2="50%" y2="100%" id="linearGradient-1">
            <stop stop-color="#00B2FF" offset="0%"></stop>
            <stop stop-color="#007AFF" offset="100%"></stop>
        </linearGradient>
    </defs>
    <g id="btn-style-text-align-left-highlighted" stroke="none" stroke-width="1" fill="none" fill-rule="evenodd">
        <path d="M18,21 C19.1045695,21 20,21.8954305 20,23 C20,24.1045695 19.1045695,25 18,25 L8,25 C6.8954305,25 6,24.1045695 6,23 C6,21.8954305 6.8954305,21 8,21 L18,21 Z M14,14 C15.1045695,14 16,14.8954305 16,16 C16,17.1045695 15.1045695,18 14,18 L8,18 C6.8954305,18 6,17.1045695 6,16 C6,14.8954305 6.8954305,14 8,14 L14,14 Z M24,7 C25.1045695,7 26,7.8954305 26,9 C26,10.1045695 25.1045695,11 24,11 L8,11 C6.8954305,11 6,10.1045695 6,9 C6,7.8954305 6.8954305,7 8,7 L24,7 Z" id="Combined-Shape" fill="url(#linearGradient-1)"></path>
    </g>
</svg>