<?xml version="1.0" encoding="UTF-8"?>
<svg width="32px" height="32px" viewBox="0 0 32 32" version="1.1" xmlns="http://www.w3.org/2000/svg" xmlns:xlink="http://www.w3.org/1999/xlink">
    <title>btn-style-align-vert-center-highlighted</title>
    <defs>
        <linearGradient x1="50%" y1="0%" x2="50%" y2="100%" id="linearGradient-1">
            <stop stop-color="#00B2FF" offset="0%"></stop>
            <stop stop-color="#007AFF" offset="100%"></stop>
        </linearGradient>
    </defs>
    <g id="btn-style-align-vert-center-highlighted" stroke="none" stroke-width="1" fill="none" fill-rule="evenodd">
        <path d="M16.0194116,18.29 C16.2410062,18.3030237 16.4588661,18.3941898 16.6281745,18.5634983 C16.6619774,18.5973012 16.6926655,18.6330394 16.7202387,18.6703563 L21.6481746,23.5990322 C22.0150096,23.9658673 22.0150096,24.5606243 21.6481746,24.9274593 C21.3095577,25.2660763 20.776735,25.2921237 20.4082402,25.0056017 L20.3197475,24.9274593 L15.9560873,20.563 L11.5926405,24.9274593 C11.2258055,25.2942943 10.6310485,25.2942943 10.2642135,24.9274593 C9.89737852,24.5606243 9.89737852,23.9658673 10.2642135,23.5990323 L15.1921494,18.6703563 C15.2197226,18.6330395 15.2504107,18.5973012 15.2842136,18.5634983 C15.453522,18.3941898 15.671382,18.3030238 15.8929766,18.29 L16.0194116,18.29 Z M25,14.9954788 C25.5522847,14.9954788 26,15.4431941 26,15.9954788 C26,16.5477636 25.5522847,16.9954788 25,16.9954788 L7,16.9954788 C6.44771525,16.9954788 6,16.5477636 6,15.9954788 C6,15.4431941 6.44771525,14.9954788 7,14.9954788 L25,14.9954788 Z M10.2642135,7.06801954 C10.6310485,6.70118454 11.2258055,6.70118454 11.5926405,7.06801954 L11.5926405,7.06801954 L15.9560873,11.4324788 L20.3197475,7.0680195 L20.4082402,6.98987713 C20.776735,6.7033551 21.3095577,6.72940256 21.6481746,7.0680195 C22.0150096,7.43485451 22.0150096,8.02961158 21.6481746,8.3964466 L21.6481746,8.3964466 L16.7202387,13.3251226 C16.6926655,13.3624394 16.6619774,13.3981777 16.6281745,13.4319806 C16.4588661,13.601289 16.2410062,13.6924551 16.0194116,13.7054788 L16.0194116,13.7054788 L15.8929766,13.7054788 C15.671382,13.6924551 15.453522,13.601289 15.2842136,13.4319805 C15.2504107,13.3981776 15.2197226,13.3624394 15.1921494,13.3251225 L15.1921494,13.3251225 L10.2642135,8.39644656 C9.89737852,8.02961157 9.89737852,7.43485453 10.2642135,7.06801954 Z" id="Combined-Shape" fill="url(#linearGradient-1)"></path>
    </g>
</svg>