<?xml version="1.0" encoding="UTF-8"?>
<svg width="32px" height="32px" viewBox="0 0 32 32" version="1.1" xmlns="http://www.w3.org/2000/svg" xmlns:xlink="http://www.w3.org/1999/xlink">
    <title>btn-style-align-vert-top-highlighted</title>
    <defs>
        <linearGradient x1="50%" y1="0%" x2="50%" y2="100%" id="linearGradient-1">
            <stop stop-color="#00B2FF" offset="0%"></stop>
            <stop stop-color="#007AFF" offset="100%"></stop>
        </linearGradient>
    </defs>
    <g id="btn-style-align-vert-top-highlighted" stroke="none" stroke-width="1" fill="none" fill-rule="evenodd">
        <path d="M16.0194116,11.2945212 C16.2410062,11.3075449 16.4588661,11.398711 16.6281745,11.5680194 C16.6619774,11.6018223 16.6926655,11.6375606 16.7202387,11.6748774 L22.6481746,17.6035534 C23.0150096,17.9703884 23.0150096,18.5651455 22.6481746,18.9319805 C22.3095577,19.2705974 21.776735,19.2966449 21.4082402,19.0101229 L21.3197475,18.9319805 L16.9990872,14.6105212 L17,24 C17,24.5522847 16.5522847,25 16,25 C15.4477153,25 15,24.5522847 15,24 L14.9990872,14.5245212 L10.5926405,18.9319805 C10.2258055,19.2988155 9.63104848,19.2988155 9.26421349,18.9319805 C8.8973785,18.5651455 8.8973785,17.9703885 9.26421349,17.6035535 L15.1921494,11.6748775 C15.2197226,11.6375606 15.2504107,11.6018224 15.2842136,11.5680195 C15.453522,11.398711 15.671382,11.3075449 15.8929766,11.2945212 L16.0194116,11.2945212 Z M25,7 C25.5522847,7 26,7.44771525 26,8 C26,8.55228475 25.5522847,9 25,9 L7,9 C6.44771525,9 6,8.55228475 6,8 C6,7.44771525 6.44771525,7 7,7 L25,7 Z" id="Combined-Shape" fill="url(#linearGradient-1)"></path>
    </g>
</svg>