<svg width="18" height="18" viewBox="0 0 18 18" fill="none" xmlns="http://www.w3.org/2000/svg">
<path fill-rule="evenodd" clip-rule="evenodd" d="M7.05111 1.11177C7 1.30252 7 1.53501 7 2V7H2C1.53501 7 1.30252 7 1.11177 7.05111C0.594133 7.18981 0.189812 7.59413 0.0511112 8.11177C0 8.30252 0 8.53501 0 9C0 9.46498 0 9.69748 0.0511111 9.88823C0.189812 10.4059 0.594133 10.8102 1.11177 10.9489C1.30252 11 1.53501 11 2 11H7V16C7 16.465 7 16.6975 7.05111 16.8882C7.18981 17.4059 7.59413 17.8102 8.11177 17.9489C8.30252 18 8.53501 18 9 18C9.46499 18 9.69748 18 9.88823 17.9489C10.4059 17.8102 10.8102 17.4059 10.9489 16.8882C11 16.6975 11 16.465 11 16V11H16C16.465 11 16.6975 11 16.8882 10.9489C17.4059 10.8102 17.8102 10.4059 17.9489 9.88823C18 9.69748 18 9.46499 18 9C18 8.53501 18 8.30252 17.9489 8.11177C17.8102 7.59413 17.4059 7.18981 16.8882 7.05111C16.6975 7 16.465 7 16 7H11V2C11 1.53501 11 1.30252 10.9489 1.11177C10.8102 0.594133 10.4059 0.189812 9.88823 0.0511113C9.69748 0 9.46499 0 9 0C8.53501 0 8.30252 0 8.11177 0.0511113C7.59413 0.189812 7.18981 0.594133 7.05111 1.11177Z" fill="white"/>
</svg>
