<?xml version="1.0" encoding="UTF-8"?>
<svg width="36px" height="36px" viewBox="0 0 36 36" version="1.1" xmlns="http://www.w3.org/2000/svg">
    <title>app-icon-template</title>
    <defs>
        <linearGradient x1="50%" y1="0.505439385%" x2="50%" y2="100%" id="linearGradient-1">
            <stop stop-color="#6ECEFF" offset="0%" />
            <stop stop-color="#005CFF" offset="100%" />
        </linearGradient>
    </defs>
    <g id="Page-1" stroke="none" stroke-width="1" fill="none" fill-rule="evenodd">
        <g id="Dashboard" transform="translate(-502.000000, -320.000000)">
            <g id="Group-Copy" transform="translate(486.000000, 92.000000)">
                <g id="app-icon-template" transform="translate(16.000000, 228.000000)">
                    <path d="M10.2755712,-4.15145373e-16 L25.7244288,4.15145373e-16 C29.2974688,-2.41211417e-16 30.5931394,0.372027645 31.8993894,1.07061779 C33.2056394,1.76920793 34.2307921,2.79436058 34.9293822,4.10061058 C35.6279724,5.40686058 36,6.7025312 36,10.2755712 L36,25.7244288 C36,29.2974688 35.6279724,30.5931394 34.9293822,31.8993894 C34.2307921,33.2056394 33.2056394,34.2307921 31.8993894,34.9293822 C30.5931394,35.6279724 29.2974688,36 25.7244288,36 L10.2755712,36 C6.7025312,36 5.40686058,35.6279724 4.10061058,34.9293822 C2.79436058,34.2307921 1.76920793,33.2056394 1.07061779,31.8993894 C0.372027645,30.5931394 1.60807611e-16,29.2974688 -2.76763582e-16,25.7244288 L2.76763582e-16,10.2755712 C-1.60807611e-16,6.7025312 0.372027645,5.40686058 1.07061779,4.10061058 C1.76920793,2.79436058 2.79436058,1.76920793 4.10061058,1.07061779 C5.40686058,0.372027645 6.7025312,2.41211417e-16 10.2755712,-4.15145373e-16 Z" id="Smooth-Corners" fill="url(#linearGradient-1)" />
                    <path d="M22.0654889,6.63157895 L13.9345111,6.63157895 C11.9339377,6.63157895 10.8843163,6.83427019 9.79097615,7.41899488 C8.77328325,7.963263 7.963263,8.77328325 7.41899488,9.79097615 C6.83427019,10.8843163 6.63157895,11.9339377 6.63157895,13.9345111 L6.63157895,22.0654889 C6.63157895,24.0660623 6.83427019,25.1156837 7.41899488,26.2090238 C7.963263,27.2267167 8.77328325,28.036737 9.79097615,28.5810051 C10.8843163,29.1657298 11.9339377,29.3684211 13.9345111,29.3684211 L22.0654889,29.3684211 C24.0660623,29.3684211 25.1156837,29.1657298 26.2090238,28.5810051 C27.2267167,28.036737 28.036737,27.2267167 28.5810051,26.2090238 C29.1657298,25.1156837 29.3684211,24.0660623 29.3684211,22.0654889 L29.3684211,13.9345111 C29.3684211,11.9339377 29.1657298,10.8843163 28.5810051,9.79097615 C28.036737,8.77328325 27.2267167,7.963263 26.2090238,7.41899488 C25.1156837,6.83427019 24.0660623,6.63157895 22.0654889,6.63157895 Z M13.6473678,8.52793948 L22.0654889,8.52631579 C23.7480839,8.52631579 24.4711224,8.68306749 25.0971434,8.97943088 L25.3154681,9.08979884 C26.0029681,9.45747786 26.5425221,9.99703188 26.9102012,10.6845319 L27.0205691,10.9028566 C27.2994994,11.4920528 27.4547597,12.1671885 27.4720605,13.6473678 L27.4736842,22.0654889 C27.4736842,23.7480839 27.3169325,24.4711224 27.0205691,25.0971434 L26.9102012,25.3154681 C26.5425221,26.0029681 26.0029681,26.5425221 25.3154681,26.9102012 L25.0971434,27.0205691 C24.5079472,27.2994994 23.8328115,27.4547597 22.3526322,27.4720605 L13.9345111,27.4736842 C12.2519161,27.4736842 11.5288776,27.3169325 10.9028566,27.0205691 L10.6845319,26.9102012 C9.99703188,26.5425221 9.45747786,26.0029681 9.08979884,25.3154681 L8.97943088,25.0971434 C8.70050063,24.5079472 8.54524025,23.8328115 8.52793948,22.3526322 L8.52631579,13.9345111 C8.52631579,12.2519161 8.68306749,11.5288776 8.97943088,10.9028566 L9.08979884,10.6845319 C9.45747786,9.99703188 9.99703188,9.45747786 10.6845319,9.08979884 L10.9028566,8.97943088 C11.4920528,8.70050063 12.1671885,8.54524025 13.6473678,8.52793948 Z" id="Smooth-Corners-Copy-2" fill="#FFFFFF" />
                </g>
            </g>
        </g>
    </g>
</svg>
